<mxfile host="app.diagrams.net" modified="2020-11-18T22:55:15.144Z" agent="5.0 (Windows)" etag="8p0f3Mxo9LAsPilTMIcD" version="13.10.0" type="github">
  <diagram id="Rgx5twtHTR_NWmaQQf86" name="Page-1">
    <mxGraphModel dx="918" dy="1320" grid="1" gridSize="10" guides="1" tooltips="1" connect="1" arrows="1" fold="1" page="1" pageScale="1" pageWidth="850" pageHeight="1100" math="0" shadow="0">
      <root>
        <mxCell id="0" />
        <mxCell id="1" parent="0" />
        <mxCell id="ci3K_5lsng6wneFuThNg-7" style="edgeStyle=orthogonalEdgeStyle;rounded=0;orthogonalLoop=1;jettySize=auto;html=1;exitX=1;exitY=0.5;exitDx=0;exitDy=0;" parent="1" source="ci3K_5lsng6wneFuThNg-1" target="ci3K_5lsng6wneFuThNg-2" edge="1">
          <mxGeometry relative="1" as="geometry" />
        </mxCell>
        <mxCell id="ci3K_5lsng6wneFuThNg-1" value="&lt;div align=&quot;center&quot;&gt;Actuators&lt;/div&gt;" style="rounded=1;whiteSpace=wrap;html=1;align=center;fillColor=#FFCCCC;" parent="1" vertex="1">
          <mxGeometry x="40" y="40" width="80" height="40" as="geometry" />
        </mxCell>
        <mxCell id="ci3K_5lsng6wneFuThNg-8" style="edgeStyle=orthogonalEdgeStyle;rounded=0;orthogonalLoop=1;jettySize=auto;html=1;exitX=1;exitY=0.5;exitDx=0;exitDy=0;entryX=0;entryY=0.5;entryDx=0;entryDy=0;" parent="1" source="ci3K_5lsng6wneFuThNg-2" target="ci3K_5lsng6wneFuThNg-3" edge="1">
          <mxGeometry relative="1" as="geometry" />
        </mxCell>
        <mxCell id="ci3K_5lsng6wneFuThNg-2" value="Physical Space" style="rounded=1;whiteSpace=wrap;html=1;align=center;fillColor=#E6E6E6;" parent="1" vertex="1">
          <mxGeometry x="170" y="40" width="100" height="40" as="geometry" />
        </mxCell>
        <mxCell id="ci3K_5lsng6wneFuThNg-9" style="edgeStyle=orthogonalEdgeStyle;rounded=0;orthogonalLoop=1;jettySize=auto;html=1;exitX=0.5;exitY=1;exitDx=0;exitDy=0;entryX=1;entryY=0.5;entryDx=0;entryDy=0;" parent="1" source="ci3K_5lsng6wneFuThNg-3" target="ci3K_5lsng6wneFuThNg-5" edge="1">
          <mxGeometry relative="1" as="geometry" />
        </mxCell>
        <mxCell id="ci3K_5lsng6wneFuThNg-3" value="&lt;div&gt;Sensors&lt;/div&gt;" style="rounded=1;whiteSpace=wrap;html=1;align=center;fillColor=#FFE6CC;" parent="1" vertex="1">
          <mxGeometry x="320" y="40" width="80" height="40" as="geometry" />
        </mxCell>
        <mxCell id="ci3K_5lsng6wneFuThNg-6" style="edgeStyle=orthogonalEdgeStyle;rounded=0;orthogonalLoop=1;jettySize=auto;html=1;exitX=0;exitY=0.5;exitDx=0;exitDy=0;entryX=0.5;entryY=1;entryDx=0;entryDy=0;" parent="1" source="ci3K_5lsng6wneFuThNg-5" target="ci3K_5lsng6wneFuThNg-1" edge="1">
          <mxGeometry relative="1" as="geometry" />
        </mxCell>
        <mxCell id="ci3K_5lsng6wneFuThNg-15" style="edgeStyle=orthogonalEdgeStyle;rounded=0;orthogonalLoop=1;jettySize=auto;html=1;exitX=0.5;exitY=1;exitDx=0;exitDy=0;entryX=0.5;entryY=0;entryDx=0;entryDy=0;startArrow=classic;startFill=1;" parent="1" source="ci3K_5lsng6wneFuThNg-5" target="ci3K_5lsng6wneFuThNg-14" edge="1">
          <mxGeometry relative="1" as="geometry" />
        </mxCell>
        <mxCell id="ci3K_5lsng6wneFuThNg-5" value="Control System" style="rounded=1;whiteSpace=wrap;html=1;align=center;fillColor=#FFFFCC;" parent="1" vertex="1">
          <mxGeometry x="170" y="120" width="100" height="30" as="geometry" />
        </mxCell>
        <mxCell id="ci3K_5lsng6wneFuThNg-10" value="A1" style="text;html=1;strokeColor=none;fillColor=none;align=center;verticalAlign=middle;whiteSpace=wrap;rounded=0;" parent="1" vertex="1">
          <mxGeometry x="130" y="40" width="20" height="20" as="geometry" />
        </mxCell>
        <mxCell id="ci3K_5lsng6wneFuThNg-11" value="S1" style="text;html=1;strokeColor=none;fillColor=none;align=center;verticalAlign=middle;whiteSpace=wrap;rounded=0;" parent="1" vertex="1">
          <mxGeometry x="290" y="40" width="20" height="20" as="geometry" />
        </mxCell>
        <mxCell id="ci3K_5lsng6wneFuThNg-12" value="S2" style="text;html=1;strokeColor=none;fillColor=none;align=center;verticalAlign=middle;whiteSpace=wrap;rounded=0;" parent="1" vertex="1">
          <mxGeometry x="365" y="100" width="20" height="20" as="geometry" />
        </mxCell>
        <mxCell id="ci3K_5lsng6wneFuThNg-13" value="&lt;div&gt;A2&lt;/div&gt;" style="text;html=1;strokeColor=none;fillColor=none;align=center;verticalAlign=middle;whiteSpace=wrap;rounded=0;" parent="1" vertex="1">
          <mxGeometry x="50" y="100" width="20" height="20" as="geometry" />
        </mxCell>
        <mxCell id="ci3K_5lsng6wneFuThNg-14" value="&lt;div&gt;Supervisory Control and Data Acquisition&lt;/div&gt;" style="rounded=1;whiteSpace=wrap;html=1;align=center;fillColor=#CCFFCC;" parent="1" vertex="1">
          <mxGeometry x="100" y="190" width="240" height="30" as="geometry" />
        </mxCell>
        <mxCell id="ci3K_5lsng6wneFuThNg-16" value="D1" style="text;html=1;strokeColor=none;fillColor=none;align=center;verticalAlign=middle;whiteSpace=wrap;rounded=0;" parent="1" vertex="1">
          <mxGeometry x="230" y="160" width="20" height="20" as="geometry" />
        </mxCell>
        <mxCell id="ci3K_5lsng6wneFuThNg-17" value="Figure 1: An example of the generic architecture of a CPS, as well as an&amp;nbsp; image to show the layers of communication in the typical CPS application." style="text;html=1;strokeColor=none;fillColor=none;align=center;verticalAlign=middle;whiteSpace=wrap;rounded=0;" parent="1" vertex="1">
          <mxGeometry x="40" y="240" width="610" height="50" as="geometry" />
        </mxCell>
        <mxCell id="Qem2GnkM8LKMpb_K4d0A-1" value="" style="shape=image;imageAspect=0;aspect=fixed;verticalLabelPosition=bottom;verticalAlign=top;strokeColor=#000000;strokeWidth=1;fillColor=#CCFFCC;image=data:image/png,iVBORw0KGgoAAAANSUhEUgAAAV0AAAD7CAYAAADJukfwAAAAAXNSR0IArs4c6QAAAARnQU1BAACxjwv8YQUAAAAJcEhZcwAADsMAAA7DAcdvqGQAAK0HSURBVHhe7Z0FvBXFF8cvJSXS3d0tCIiIIigo3Z0iYncrqHQ30tLdKIrY8bdQuh/dIB0KvPM/39md9y6PCzzgNTvvcz73vt3Z2dm9u9/9zZkzsz7xkpe85CUvRXq6fPnyh/oR34Oul7zkJS9FQfKg6yUveclLUZg86HrJS17yUhQmD7qxPF0+flxOL1vm/uekk/Pny4lhw+TYyJGeeeZZJNg/en+dnDNHJDjYvevCnzzoxvJ06euvZV+5cnLp1Cl3icihDz6QHYkTy4Z77vHMswi3jWqbXON7oDzhtc1qW9UioqxbMfZ5K/vdcffdsqNKFQm+eNG968KfPOjG5nTpkgS/9JKcTZVKDvXt6y4UuXjokGzJmFF2+HyywTPPItC2qu1zP7f5fV+vFij/tYz8QWpr1L53l0X29co+t6uxX1tfjgELm/dGtktte+nSHnTvuLRypUjz5rJbn7obM2UysLXp6ODBslcvjHWeeRYBtlYNOP2u1kXtUbXqap3VvlbbpAbINrrmvy2QYh15+M4y4LdArZzag2rd1TqprVYLm99uY8uy38mD2eX2f2u2LnabLWoL1eaocSxA/gO199Sojy3Hv57++7Hr+M6228uW9aB7R6Vz50SefVakaVPZotDdrRfBwbfecleKBOv6rYUKmYvDXjwxwbhguXDD3piexWzjN/tLrbRaHbWpahPV6qkBLZQf19pvaqvc73ZbYAfkflWjHP5nfW01oL1Z7Uu1IWooX/KgRskPhMlvy/K/boCghSOfbAM8LXD/VrP7ZDn3yJNqjdXIy3KOY4r7nTry+bMadULB87ChPPLz/Q81ytrJpwfdOywtWCDSurUEN2pkoMvFgl/s36AgN4PIienTzc3ARWMv1Og0C1xuSv7nxuBCDpvPs5hnAOsVtVJqXFOYAY8acAOMz6lVcO1jNVpawBRIN1MrqVZF7U+1xWrp1SgP5YzqfVbNgrSdWlm1GmqPqH2rRlkt1LhmqE9PtbfUDqixb4z8lDdCjXqwv4fU2B/1LKaWTY18wHa4Wg81yvhM7WE1tmOfK9T2q6GGATXbFFJjn7hVPOjeSenkSQnu2NG4FoIbNjTQRSFwke/t3NnNpGr38mXZVqGCuUEC3UhRYdxAe9RQCgfVXlfLp4Zi+p8aNw/rraoIVIZn0W/8TtXUnlcDOHY5D1J+PyBbVO0ntSVqedTmqy1XS6HWW43f+z41ygDY96u9rIZ6RDWXUOM6YRluhx/VKCu7GlDGNVBEDXhyLT2l1kjtmFplNbYfpjZPDZcH+0a1tlF7QI16t1ZDYa9U49rsqNZKjXXA9iU1hEFXNcoExk3VuF4/VxunBrQ5lj0edO+gNG2aSKtWIk2aXAFdmkSbEyeW82vWuBlFzqxYEdJR4H8TRYWhZLmAUQpz1biBcqj5XOMC56Z4X22ZGk1OD7wx04AuipHfzL+vAOiyDh8vD1RgeEQNZYvyBHz3qnEd/KMGcIEYeWqqDVA7qYbqLK9GvkpqQ9UOq/EwBtRAF7VaRg3oAsNn1FqqkQ+FinsCAPMQQKWiihuoVVQD4qjWF9Xaqh1y/wfcuDi4Dguq4R5h+1/c/4Er0H5TjbK5zyyA93nQvUMSnWVt2xpfbljochNwwezS5f5pxxNPmOVRCTRuRh4CqAgAm0ztLve7v6V0P4ExFzI3WaDyPIteA6z4Q1F/wIoHOb8VipVrC+i+pgYAj6oBXQD7hRqQwqXAdoAYUAJdtkEB890fukASGJ9Qo3yAicpdpEZZCAhAjSIGrOwTFd5fzV7nuC0ALPfFp2qAm4cFCtYfugDXQreAGj5g8lkI8z/QtQ8bVDluDx4mHnTvkBQ8apSjchs3Dghd1OWWBAnk7E8/uVuInPvzT9mSMKG5oMPeTJFl1IM6FVYLC9pAFk9tjFpM6/jzzDEAi181ixrqkOY54AGiqNJBavzW5KF5n0sN9wLqFHgBXdQpgGuoBijxt36kBqQnqeFvxb2AYgaAXA/ADt8vwMXdkFmNJj4to+JqzdXYHnWMjxcwsi/2P1AN5QqYqRuQxR8LkPEPc1y4F3gIWPcCxwO0qScuCeqMWkZVk4foDcrC/7vfg+4dkHbtEmnRwlG514AuhioJql7d3chJe9q1MxekzROZxkWLGkGp0LPtD1cULTcBTVX/5fgArXLyXAwx0wDiUrXH1FC8QIlOMsDK7/aCGiBlHZ1TXG+0XugUIwqBvoW+ariTWIcSnuB+B6oAkBYSnXLvqNVVA5J0XgFy8tHMx3f7uBrXEaAFpkARcNOxh+FqoOMOBYwfl841ri/cBk+ooaZR14PVCFcDrtSVMLiqaqjwr9QALXUB4NSfTuAOaviuPZ/uHZCC+/cPVbnXgS7Ao/l3+rPP3C1F/gsKks2azz/8JrKM/RNexE3ADWLBisJAedC042LG14vCZV18NXqvUSD+ipyb0L9sz6LPeBgCNFojKD4UJbDlmuJ34jvL+e35zjbWzWS3pwXE78t3lnOt2Ic0/7OewRIz1fCn4jIAnpTLdoCfJj7lUg/y+5dl60o+6mHrwnqbD/hSd/JRpq0P9wzrASrHRD6Ws97uh23IQ5le9EJcT5s3h/hxbwRdzFwUFSqYUWs27X/9dQM7/3yRYSiCUWoWttboWaajhYuXixqjN9o/DyqDm4kbiHL4bm8YD8Axw/gdgBAWdl2g5f6/G9/t//7f7f+ADsXJdWDDvWarAXubBwhyffhv7//dmn9d/NexLcvtNmHXUb7/srB5+M516UE3rqcP9Xdq2TIUuDeALhcG4CVW16aLhw/L5owZzRPdP29EG+4NOkL8YYp9ogb0ASgXPfVAxfjnYXQSSph1NBnp4eYmxAeIemG5VRyexT3jtwV6PGhRo0AY4Ma039yDblxPq1aJNGt2pcq9AXTthbGlSBEJPn/eLUjk6MCBxjcWNm9EGjfMN2r4vuj48Acq61C7QBTlm1DNrqfDgubkD2qT3WUYPsJeagSnszwqXCSeRa/5q9FA66PbPOjG5cTUcQzvpQPNH7jhgC6G6jw2YoRbmP7gZ8/Klvz5jWoMlD8izKqVM2rd1Cw8MUJ+6J0mlCyJuwzDzUB4Dj7g5GpJ1fy3s8Z6e0MG2rdnnkWFedCNy+mHHwIDN5zQpWm2JWdOuXT8uFugyPHJk42/NDJVhAUjQeuB4BnWMqrRi2zjdq2lDfM/o4kIEbJ+3kD7jm3GueJ4eFCFXccxch5Zx3ea25h/Hn7Ha20fyOxDkWuDz4i4DmwZfN7uAzHQQ9XW2S4P7z4i6hoPW44H3bia/v1X5MUXzXDfW4UuRsD44Y8/dgvVdOmSbCtXzoA3UP6IMG4KLlSC0v2heS1D2RLXSayk/b+PGsdFaA/xoSwHyrgtiNkENIH2HVsMkHAMQIa4T9wqfGcd5w7jf3rxWYc/m5AtwqdsPrbH8Ht/p2bBa7e3+7LL+CQPZXJe2YYRXjZ/2G2uZWHz2uMgWoCwrGuVF2iZv9l1drYxu5w685tTb86b3Ydd7292Odvb8xF2HZ/+24f93y7jM1A5HnTjalq+/OrOM38LJ3RRRpvSpZOL+/e7BYuc/vxzo3T8L+yINnyv3CTMRIVPdrRaajULWuBJzzS+XOI6m6glUGMd2+D3pQyGX76tZrfDiJuMbN90ZBs3MiOfOA/EuDKKa6waD0nrtyZ+lMEHuGkYkMC5okOS3w3Q4ZJhhBWdjrhsGKTAeeGhZ4HMfoAEy3ArARNiYjmn+NABNg9g8pHfXC/ud6uu2R/bUg51s0qTzlpASzw2y6gj9eXash22fGef5CUP5fFJ2fZcWMMdRmwu/nv2yXZszzERL0s/AA8J4mspB7N1pEzyUg774ri47qgzx8InZXKsth78bz/tMXN8HCt5yMtADEbOsb2tJ9896Ma1dPasyNNPX1vlYuGELsZFe+Dll93CnbSjZk1zkQe6+CPCKJeLmAuYm4AONGAKNHEnEGgOUHEXMC+DP1QtdLkhwkKXEUEMC7U3WGw1zgmzXOGCsdADKICYIbWMjmLOASCL64XBBIRQcewAje3J84YaUSHADzXINgwIYH5aFCExr4wiA8qE8jEPBqO/ADQQY2QZ559tGMgA+NmGOGvOPwMaUMTvqtkRaDwEGGbLbF7ALb8acdYz1BiYAMQYTWbLo27kZygxo7347YGa//lgG5bzEGHQBXVg4AP741gYjMGDm1Fs7J8hxqzjPFBHRsPxP8ODiZ6xk/DwYEHVUwbHyHE8rcaACfbJsXNcGOePkXCcL0a7zVKjTEa/8RtYBe5BNw6m4Llzr69yMRe6WxW6NwInT28GR1zYssXdg8i533+PkuHBtpnGTUYYECOYCECvpYY7geVcyNyMwBiw4l7gRuJhwpyn1r2QRg31zEUfWQ+LqDKOm0B/QMQoLz4ZPAKc2qsBFh4+gI2WAPBgHdtyvnjo1FfDNQGE+R2BJGoYVw3wIz/bAhjgyBBcIMNUhQw4QCEzrJahsLgtgNWrapx7Bq9wnhn5xTY8HMar8VBgG+DG78fkMuyTmb2mqQFf6op6R4lTR5YT/oebBPDxIKFse21g/A/w2J66A0F+a/z4fLJ8pBr1BOaAFDjSGgDUzLFAfC8PMgBMpAt15zzz0CYvI98YMsx6HkI8WDgXnGvKZPpKjotRc9SZeRd4kJDXujY86MbFdPy4BHfo4ISJBYKtNYWuNGokO5InDxeAaLYyHNg/7WnTxqjgQPkj2gADzUJCxxhmaZUrCobhmtPVwg4bThfmfybN4YZF3QTaR2wzfjeOhYciUR3c+ACX79z0wJNzhmoDJh+q2d+L7YCBnV0LtYyyZYgsrQtgSHk0sSkDUAA8wMM+yI8aRf0y8xd14AFHM76fGkNsiZkGaKhryuIaQoHiCuETRYripB7Ui/pSJuCmvv+qAXQUNeqSVg3uA+BuJ6ex1y71we1B/XG5cE0Ad5ZdVuPaoBxGrDFxDXUFzKfUOB783ah8YA9ggTCg/k+N84ZLioc454CWAXXkvPDAo64MSeacsT2g5aHEg5DvlMPEPADcujw86MahFDxp0pXDfQMZwG3dWtbWqCFlEyQwNyg3mv8NHdZQQlvuukvOEffrpn+3bpVNyZIZN0CgbSLSUCTcTP4Q9TduBm7QQOsYLgxwE6txs93oWGODcePyu3HMKEuOHwAytyzfUYs0p1F3ABDFCzyAE9ujamk18AADSKhW4IFKQ9mi0nhAUTbA4TcGTqhWQMb+UXY87FDDtDRQpcAIgAE/vgMlXBBsyz5RmMCWcpns287ExbwIgIsy8YMy1y1uEsCFyuYT2KE6gSn+fABnVTowBf64WHB7cTzAGaBTDq4VlClKm/qjmqkbEOdBzmt4eMDgf0XhcgyoZPaFS4KyaGlxbnkAoWg5/7gNgDfboqLZF8fIfjgn1It5IAA0PmvOg/ERe9CNGyn4wAERVZ9iJ7W5hl1o2FA21Kol1TNmNFDixkQ5hL2xwxp5dtWv7+7NSQdeeSXShwejEPDr0bylvnnVaP5x0TOjFMu4SQEATVYufJqsFrpAAUWFurIdNLHdUEwoL/yGQJEbHqhxfCg2bnLmokBxAQCat7hlaN6yPQoRcAIf1C5Nf+srBbaAg7LYxvb24wIgD4NXKAeg8LuwnGgRFCznGl8qvwXAAjQ2D/sEOPwO+GqpH+XgC+UBQXkYD0UeCByDneeA7akbefkf0OFXBoCUgWuFPAAY45gxe3yAnLJR/ahuwIwCZ7/UA1gDXtQwx2zrgOK154D6sw/2h58a9w7HA8x5qJGH+nHO8d+SlxYAAOd34kFIvWkBeEo3rqThw6/vy23RQmZWqCBpVbFaIGHcZFyE9oa+lnHRc5Gd+fZbd4ci/x08KJvTpzc3fKBtbte42WkK49PzhyjNQuZFpSlrlxPBwIMBVcyNwmxQqBluXI6PGzTQPmKrcW4AI+fH/2HCb8Gx8lsBCCDEb8enbY5bM6pLDciQlzL5DpBZb7e1ecnDp11HXprQuAXwbVpwsz3rgA5l2m0w/3X+5fBp68gxcFyUZbe30CYPEAPmrKMM/3qRjzz2euX4UPhAlA4x/Njsm3PmX0d73vzrQB5bFmWT19bDni+Oh+3subbLbX0ox0IeWHONetCNC2nHDida4Xoqt1kzWVOjhvQrUUJG6o9eK3Pmm4IuxsUb9NBD7k6ddKRv30j17XJR0+y1HWUoFdQCfjKacCwjBpeeeG5ULnhuEm4Abhq+c6MEKtuz2zPOKyDivFtIRua5tjDkOrTAZRn7tXWw0Ay7HfWkVQYMsUD5rFkI231cy1hvy7HlBirT7p+8gN6DblxI/frdOGIBA8rka9dOehUvftPQ5SkOBE8uXOjuWC+EM2dkc5485mIKtE1EGCFgNM2oL0b0Aj43O72jbbb5b0NdMf9lnsVMs5ADTPZ/QMoyC3KWAVvcJzTZrZLkE4VN851WEG4FtuO3Z539jjKm1cN1Shm2+U8ePslDXv4nL24Q3A52GcCkDuS1+XEj4E5A6eLCQEXb8rBAx0JeD7qxPW3YIMGBJrW5nrVoIe8XKXLT0MW4aLaVKSPB//3nVkDkn0mTTBlcYIG2uR2jTPZJB4yFblijQ+lmjsGzmGPAC2jil6bTDFgBM/y0wBHfqYUc/lc6VOmIA8Asw7eNP5moDTq9eBgDXsrG/0zEBS0xfN+0jAApHY5AkmuLPECcsuz+KNP6aakTk5LznW3JQ4ciqhrfNx1vgBc/Nm4P3Ad0HuLOoKVFWay3ZXvuhTiQgrt1C5/K9bfbgC4XKhf88QkT3BpounRJtuqFxIUYaJvbNdQDFz+9yBj1ZgQanSn0vrOOPIG29SxmGwoQiBFJwKACOrcYhMHIMjswg9+WaAUiK4j5tQMbUK3E5wI+WkO8wJLIAjr2iHQgjpZOVTrlGNhAnC2dsER02GgDoh7oiOUTKBNNARyJqOC6wrVFOUQu0FfAcsDPPgAz7z3jk+uSDkl83JRFvVlOBx19C/ZYALEXvRCLU/Dvvzu+3JtRudhtQBczHRD58xvXgk2nli41y1EMgba5HbM+MRQLFy03AmoH1cAy1gXypXkW8w2gomDpiKMzlJhcIh8YRYfLCAjaeGD8+KhZXAnWh2sHUxA1wXXM/wAclxPwRmVaABJHfE6Nsok6ILSMDi7ACFTphKXVxDL2iwKnfmyPMkZ9s39CvwA1KpoymBWPkDxCzghJI2YXcPMwIHqC+nEsPFRQ1rs96MbSxJsdXn/92jOJXc9uE7oYwDsycKBbGSfxfrXIbuZbpR1ZqtqzqDVcRwCMVguAYvAC1yRxvkAQwBHWCJD5zVmPyuQa4AEMIIk3BpCoZlQp8diAFTWLiqbzFegCSN6/B5CJC2bgAm4A4n5RuYAb6OIKALqE2hHxQCgZ26FWATrlA1TKB8g8DBACQJdygD0+YyCLKrfHQl6We9CNrYnQrVsBLhYB0OWC35wli1w6etStkMjZX36RLfHjmw6DQNt45llYo2MWfyuQQ20SS4tvlHBAwIqbgBhbXAFAi8EGuAhsxy3b0+qxTXqgCDyBJbHd+HuBIwMxrKsBNQwYcTMQw41Pl4EOQB33AT5ZlCuuAgZPAGmAigIHpLgXCJNj/zwUAC4PDNQznWnsk/qwPUC3rTKOBX/zLg+6sTAxdeNzz11/UpvrWQRAF6Npf/C999xKOWlPy5ZmeaD8nnkWyFCoDCygoyqQe4plRA8w2IGWDua/HgDT0cV6vgNroIuPlbyUz/aUT76w21/L6ARDQQNKVC/lsD2uA+pkxQW+Xj5xcSFGcGmQj+/+5WFe9EIsTcGEbN1s5xnmFzLW0w0ZoweWgQaAlwvpZnyj+FI3p0wp//pNhnNh0ybZlDChmRmMMj3z7EaGCkSd8rDmu/XVs85+hs3jvz3GOox1xOMCSa5PmvU2D8sx/334fyePXWY/7TaY3Q/f/fP7l2n3Qz6+hy2bzj76QzzoxqaEyn3tNZFmqnIbNAoM10DWrJlseuwxGVmmjIwtX15qZspkoItvirHjNK+4UMPrGrBw5gI70ru3WzknHRs9Wg63aSP72rf3zLMot71qR9QOuN8D5YkuO9S2rRzq1k2C/d62Hd7kQTc607ETEjxhtEj7ViJ1GoQPvqpwJ5QrZ0CL3RU/viSPFy9k8u9EaoTIBGoShTWaXTTRthfMKccnT3Ir5SUveSkykwfd6ErnTohs/1bk5xEi894T+airSGtVvTeCb5MmcrZBA9n9+OOyt3Zt2aufPyRLZgK/mZiEXlWC0q/n7wK22LaC2eTUG40l+POPRdbPEjm43q2cl7zkpchKHnSjIQX/OU/k8+4i3/cT+aKnyGf6G3z5kchchW8Pf/g2vCZ4zVy7bmzvruTJTRwiHQTYtYBrYbu9UDY58WYTCV7aTeTbPiLLe4j8MFhkxcdyekw7ObflF7emIpfOnpTjX4+XE99OlOPfeOaZZ9jp79RWLXPvkptLHnSjOh3fJzJeYTkJay/Bc18TWaoAXqbQ/dwPvj2fEWnjwrf+teFrXtej0AWmgUCLWdgGFc0hJ99uqvvS/VnYftlXLi96T/4ZWEe2dsogB1tqvo9quJXVC+Tfc7LttdJysr1Pduu6PZ55FkHG9bRX7Xg7nxxr65MjbXxyQr/zGVHXGuXsb+WUz/eDrX1y1P0e8v8t7I96bnm5KAR175TwJw+6UZ1WDhOZ2lLkk0YioxpI8Gj9/LSDgvZVha/+FsDXKl/cDr2eFWl7Dfi60N18jTdHhMI2p5x8V5Ux5X5jYdtHLi98V472f0K2dEgnq+tq3no+2dDEJ9ua+eT0X5+7FRY5u+lH2dIsnmzUdesae+ZZxBjX2vbmPhlcyScNcvukZnaftC3gk7nVfbK5aWgebH2YbdfrMq5Hltt19jvr7DZbtJzPa/qkYyGfrG3kk29q+2T2Iz7ZpMt36L5HP+CTV0o4+ez2ply1kH35mS13Zwut+zsVPejG9BR8ZLsEo3LHNVHoKjStKXyBcPDEdqp8ga+rfC185yt8ewPfFlfC10I3WbIrlK6F7Y4SueXU+7rN51pGCGz7yqWF78jRfrVkc3sXtvVDLzCMC2rbW/dphUMvqF39GxpV4p/PM89u1Sy4ni7ik3wpfdK/gk/GVvFJa4VuvVwKSHc9cFytsOQ7MASciIKtaiwH2nxnOaDepfkssIN0Hd+/VdD2vU/vB133cTmfVMvqKFugC+CH3++UDXjZ5u+GTpnsZ42WSx3Yv9mPWy778aAbC1LwZ71clesHXH8zyleBitthTiD4vi/S5zmR9grSuvh8FdQudOk8s7ANKp5LTn2g+wkL2/lvyxED2zQBYWvN3BB6YZ34aaZbc5HzO1fL5pZ3mQsw0DZRZdSNm8MqE7uMm2aD+79nMd8A2tLHfJIxiU+W1fLJIW3mA8Xdar/rdcn6SVV9UjmTT+5X61JYf2f9jQEl21XLossz+uTxHD55o5TjQuir4G6j0H4ip09KpfXJe2UcuH71uE9eL+mTvxSm1RW4GZL6pJZuB2xnqer98F4Hqr9qS6+JKu4qmTVfNt2PKmTKJR8KvKGuK5POJy8V98keXR7kQTeGp31rRSZoE39sGJUbyFz4Bk9sq/B9RWRJGPguUPj2Vfh2aCXBtevJBl98A92dZfLJ6Q9bK2TDwvYtOdL7UYVtWlld59qw9Tcu7i0vFZHL/553D0Bkz6hOsk8vtkD5I9tQGIB2m9qKOkmMbdXvQXpzbtfP3xskMPl2ab136DKagWHL8CzmGDAEduXS62+owLMPUAwl+fUTqoBT+GSEAu9HFQgVMvjkVQUn60orUPkOnDsV8sl9uu5YOwVufp/kvccns1W9fvKAT7Ik88kPuu2CGj4pkkqvCb1OcCVUUlgvVnCjaN9RMKN8D7bxSX2FNW6O3xsopBXkpRWwPAheVsjmuNsnUx72yVS1TArtLxTk+9/3oBuDU7DIwndFpqhCDQTZaxluh1GqfCe2E5mt8A2rfBd1k8sfdpG99xWVU91U2X7xscK2t8K2pwPbeW/K4V41ZFPblPJ3OGFrjZsA1fHPik/cYxD59+B22dzmbgO/QNtElm1WgO7XuvxU/y6pU7qwPFCspDyoVqdUYVlZN5k8WzGXlC9SWqoWLy6tyuWX0dXTOfVX+PrfzJ7FHKMz6l0FHgAEuv7rAHKPcs46FCUqGLWJAp2pyrSEQnez/rZ0uI2o7JOqqnqPtHXU6HNFHQDTIiur0JyjAF6mgOX7NgU2bgZU7l4tl06098r6pI7Cdo3ut1DKUHXLQ7toat1W/wfw7bRsOvxwK1RSyH/6kG7/gQfdmJuC/ifyqQJ3TACwhscsfCe1Vfi+rPDtFgrf5Wq4EVb2ClG2F+e9IUd6qbJtmzrcyjaQ4S/b0jWXXD530j0QkQOTX41StYtq/aHeXTKkWkapWLSUvFgpp/zdKIHeFPHlnQeySppcD8hjJYvKj/WTyKLHk8t7uuyREsWlQtHSMuDhjEYJo4hRyoHK9yx6DMWK+wA1+qcqTuu/pYUFZLurCn5AIQucD+j1RofXA5l8Mk2VZrE0DnSJIBil0H3QhS5gfKqwz1yf+HvvUxU9T1Wuhe5WLRufbk2F7m7NQ7nvu9D9W+sEdD+r5URUAN3iCt0lCl1cEy3zOaBGcDygD4PJWg8PujE1XbroRCYA3UBAvRlz4Rs8oY3C9yWRJS58XWV7ce4bcrjnI7KxTQpH2WozKdAFfzPGBXhkvpbvpksnDsnmTumNzy1Q/og0gDv50VRGxRYteK/UKFlMDhpVFE++rJNE9un3agrY96pklUNaT9wM/+iNsUdvromPptbtShkg/9EgoSnLA2/MMaBGJ1dlBdiDCteVT/jkf/V8MlIhis8UhZknhdOc53d7SPPQ6UZnVqFUPnm+mAPghxS4D6sdVQC3UDC2L+jAEeiWUDijdJc86qhWQD2kkrP917WdfgDcC49kVXWroK+hn6hl4N+zvE8Ka74tei09q+q5cW4H5kD3XgX4RFW6hzzoxswUvGml41a4VZUbyFC9xu2gynfOq3JxzmsK22qyqU1Ko2zXRgBsrXGRb+qYTi6eOOgekciRBb0iPZJhk94QvyksUbcr6iaVEY+klXbl88kxvfC/V+X7gipeFOzzFXPJWw9kM6Blu4k1Uss3dRMbdwRuCbYpVrCsbpPYqF4PvDHHuLZ+01aY7aCiY6yCWg8FHuAcWNFZjuJtlMfpCKN5v0SV6xOqVpvmdZY/ms0nh9s4flg6z8hD1EFTXUe42IrHHV/tat0nZdTRbSmXUDV8v51VHe/S65lwskcU4IAcP/H0ao7q/lDV8KslHDXOg6KVwn2hgtzz6cbEdPG8BM941hkIEQiet2t0til8t3VKK3/pBRORsPU3AHtgymvuQanaPXdSNnfNadwPgfLfrgHGvVr2yOppJUueSjLo4UwyQRUvvty/GsaXfboOKO/Um/bpCrkNdE/oTfpBlSxSpEB5o37/ahTfQBn4vnx/DilRqKw2YxNGuT/as2sbvzMQA2Z0XtHpZV0MrOfzT13+nQoJrjXy4qO3IGUdrgEUMG4I1LN/B6qJt9VPjO8s47rhGkBVA2a7DSFnPATYB/ClbrhA+AxUrhcyFlPT6sXXDxG7XRvTRKHbQDa1TCxr9AluL4qINi5SOtAuHNjmHpjIsRWfmAs9ojuquMhxBfzaIJHcV6S0PHlfXml1b355WEHa4t4CUlnBO+KR9HrDxJPdelP4Q7f7g1mkRMFyxg0BdIHyLjXASxlPlCpsyvY612KWWSgCXH+4YSy3sMWA79ulHR9tRVXFzVV14hMGpjaP3da/LP/vhJ6xL5vffyAE+djfFfldC/lf13nQjYnp/CmRyZ1EJjYLDMyIMAPdhrK5dbJIhS6G2t0zsqN7cCLB/12QLS8WCVElEWEAl5Cw3xsmMqq2qwL1uML0iO67Y/m8qmSzmsiE5grfn+snkr164Vvo4l7gxhj/aGr5um5iA9fpNe+RcTVSmzI3NoknpQqXlWHV0pmwskD79yx2GMDETYDS5frjf66dQHkjy1DnHnRjWvp1usi0SFS5WBRClwubwREXdq12D1DM4AkuPn8VcDuGD/Y3VbgPFy8u2fNUkg9UuQJdVMzvDROYKAbULQqWffq7F1gOXDtXyCOf1U5qOtpKK2SLFLxXJj2aSs608cnwR9IaHzHleQMpYq/x26OAsYi69m7WPOjGsBR86rAET2wjMj4SVS4WhdDFcCfs6tfQPUo9zuDLsv3tCqYTIlD+mzUUKB1kHVTV0vFVvFBZeV/V7epG8UyTD1haRcMNRySDhS4+YKIXqpUsLjNU4RLTiyviPoUsnXBf1U1moHy/LgPCdKqF3b9nnoXXPOjGsBT8/ZjIV7lYFEMX0G1tHt9MgGPTqb+XGz9bWF/crRjQrVu6sIEkUQpLn0hmoPq/BgnNvm0+FPFXdRPLp4+mlmd0/dsK3aMKfiBcvWQxA1UgvKx2MlmuNvyRdNKwTCE52dpn4nw73ZfXKGP/fXvm2c2YB92YlP7ZIzKxlci4poFBGZEWxdDFGC0U1L2ae7BO2tHjMbP8dv1qgJDRZajdH+snkj4PZTQdYWFdAUCXYcATaqQx+d9VNdyraiZppMAmpvdbVclEOAyull4+fDCLjNF8jcsWNL5hgExHG52D0dU09Sz2mwfdGJSCVwyM3IgFf4sG6KJoUban/lzqHrHI2S3/k82qgP3V6K0YPtq25fKZDrS/GiWUKY+lNGDEADrlk8d+P+S6F1C6n9e+W0apQkYVA9cTqmqfqpBHXqiYU8bXSC1NFLpEMdDJhtthVcPbr69nd6550I0p6dAWVbnNwzepTURYNEAX44Lb+sa9evWEvpRv1+BmtzVgAn/tD6puKxUtJT/US2SiEQ5reShSIMv6b+rdJR8/mMmAHxAD4K4Vc8s7Ct1PqqeXl1Qho5KfVti2LFdAShcuI9/UTWJgDHQZwfZL/YTyYPESplMOxRyoLjcyC33Chux0f/7rqRsj9m5XSVMu5bOvsPvwz4O/254nu3y7bkfPvvmt3DLC5rmekY9tAh0f598uNx2sN1HuzRhlhufYwrNv+3vYugfKE8jYJlB+D7oxJAUv/UhkShSpXCyaoMuFCHBOfD/VPXKRC3vWy+aWic1NGGibGxk31rInkkoVBSLA/Uph2a5cfun9UEbTAWahTMgX7gbqYKCrShfozqqV0rgYPn4ws7xVOZu8+0BW+U7BiuId8HD6EOj+bKGrZd0qdLfofgnQZygqE65wUxoQ+EGA8f585ybn2LhJLTwACf8TfM96/ievNQsTzuXyWj75u5GzLRBkHQChHP5n0hamJxxTxVlO/diWZc8U9clzWkfmjGUwweSHtJ66T/JRV8rkf+rBdtTDPNDc/Sx+1JnnlvVAjm3IQ6jWF1ovhsUygxeT0LBPk0/z2DLMfnQZ6ywY+WQ9+Vh3RV5dZvPaY2PCcUaNcX7tsc2o5h6b2kz9bssxv417nvz3zbXymf5eHCvDjZn0hhFvlBlSH11nzwPb8z/ngEEbDE1mIAVlsoxzQF096EZzCt79lxOTG1UqF4sm6GJcoFueLyjB/55zz4DIvjFdzMUcKP+NjAv9T23yM1lN9ypZpFyR0vJKpVwm/MtGLZDHP+rAH7rTa6aSblWyav5kpkMNW14niSx54m4ZrKCmg45l+IJxL/zdKF7IjXqzRj1W6c3InAHjH3SmCAQ+DFtlSsIf6jjDSBnnz80K8Projc68rjysvuHGV5gxr8Aq3ZZJthlWOk/hiPXTvACPm5whrsxyxQgqYNdPt2M+Ac4/2wIkJmNhDgGiSIDOl7qfh7M6885O131M0DoCb4a1UgYQpq4AaJzCekJVZzv+BzKU+1NdZ0Iapk4EMszyNUyN32GKwpsZvwD7HNeAEfthaC3niDhazskg3Q/Ddinfnrtf9FjIB8yYI4H9LdLjJS+fHBv1ZJKb1vn12Er7zIx3lMHD7hHmutUyp+nxMPE555cyeEh9qcf5o57/he7vwTqGGjPHA78HdW+S19k35wEQU4ehemzUH0izb46V4+e8j9J6UDa/yQAtkwcOkTwedKM1BUvwgndEJkfApDY3Ywpd5mDYEg3QRT1w4R37fJh7DkT+PbJLtrRLaZRgoG1uZHSaoVaTZK8qnz6aUsbVSCMrVfEyoTpqlxveP78/dIc/kl663JfXuBSI0QWwbz2QXTrel0d+VMWLX5fOtXH6ySQ4DBHmGPzLuxlDCTF/K0NUuVkBcLeyzlwAgKFSJkdRAchWmq93eV2X21nXWPOwDqAyCxZgY24AwEZZzDNrJtFWsNTJ5ZMXVK2y3ZOaj1myyEu5qFhmwGqm0P1A9w3QASTQZ3tm6gKMzKYFnJguEcgywQtzFDBHLfviNTmA8cXiTrlAGyWJikTN8+DopfVnjgKG3DKvLMf7qUKJhwkABZBMFvNyCWdScR4izKPwke6TqRR/cYf4Uj+G2TKhDEB9Q+sPzJis/COtC3MqAGVmC3tTYcuIM86rPbbvdFuOjXpT18OqhpkgB0j+rPvgXE7UelXR8sjDvA48cKgv5w6VzAODdUyATl1e0zq8pftiAnSOpaseI/WiTM4L54IHC0OOhyusedAiLrxJzKMxBW/7SYHbXCEYAIwRbYAWuOPGwCY2lf0dkxsAoQTCgikyDSW2uUs2uXTmuHsmRA7OeOeWp35ExTKKDCgyomzqYynlj4YJVL0mN51qqCT//ByzjdMlxAwf8KOlipoIBb4T4/tMxVyyXNVy76oZTVgZ+QH17YaMoZCAKTct0wu+paBhvlVeNwMsOxR0JmEBLjUUEgNUoQIs4MisVdJFoaLboLy66HKgykMMMJKHibVpWr+iNz9KGHAAsYFaDu/7AnYtdf/sE9cCUxSiNvn9+V2Y4BtQMvMWMAUUwAuFB9yINgH+zB1rlwOvBQpAHiTUEei+oMuAOBO+ACdepQOIWH+2g6O8e2qdeSDQhEdtA0oeIAD7tOYBxihYVCTXKGoe9c7DBPACwud1P5THGyJQkxwb23JszLsLdDk2XAK84YFjY8Ib9oG65ZwATtw9zD7GeTvR3pnukd+DBwbQ5zt1PaVlv6z7BLLMUgaQgSu/Ew9EADxU1zEbGfWnBcO55BygornGPaUbXenSRQme9ZLIp5E0qY2/KXAvjmok3736kHzwRBF5okQWeaRQBnk4WwJzMdAkRIFFJXjpPDs0p7t7MvR0nDoim57MaG78QPmvZ4D2k+pppHbpIkbdolb7PZRBChcoL90fzGpAib/Xzo/rD12WMzjioRLFVSWnMhEMRDUw0GJNo4TyRZ2kCu14JqRsVs0UJm+gOoTH8EGikh9ThYii4+0GL+nNj/ppriBYpvBBYQEDYAaoACfgAWS1VTEBVD5n6f8A43PNi4rj1TTfK+RQVbgD8FuiuGgmP6r7A4qUQ362X677AiioS0CKK4Z9AT3qiepDGfNgAF6UxdwFuFbq63J+J7alnqhUgANseKAAQ4ANzIAvsESJ8oCor8dEkx4ly4OFBwgPDJrsgJT9ojoP6YOnmZ4TzhPQBZ6UjQrnQcA63CwcA5OSt9OHFaDl/HHMIcfmKl1cNBwL9ce1YiYkV7XbXsF4b3qFuu4D1d1VzxvLW2j5tnWBuwPlD1AP6L66atnsi9bJGN2GfPx2PDzma17m78XtwPF8r/cWipxzWEt/B6aC9JRudKX1X978GyFu1VTZDmhcUnw+X4glShAv5DuvFOE1JKiwQLCIDONG2tQutVw8ts89ISJHFve7pUgGOrZ+qp9IyhYuY0K7fm2QUEoWLmuAiZL9tu5d0lkhigsCdwPuCAtdgAxIX70/uyxTZcu8DEOqpVe1m8XkQ/n2UrVLJxqguR3XAmoNxYQCAmLcjACE844f8Y8GDsRQVDwIUYM0l3EF0FQHFkAKv+t8hRT/A1qggupEEaMkUdHshzli+UTBPanloMjID9gAAvnx3XJcQBc/JAoQ6HVWw1cLSOhIA358cvzUC/WH7xKQAzTKQ3lzXF/pdrglUL4od9wZqGS2wT3B8VAWIOOYqQfQZF8oQ1QnHU74ankQsB3XCw8OyqOOgxTwwBW/KUod4OOTNS+p1LpwrDx8zLHp9pxPtuPcAmT8q0y/CAw5Z7QuOJZPdHt8w+wbny5w5dzR6ce+qBe/kT03PPhwK/Aw5DekrN76AOJVQZwLHqDUhYcPx0sLwVO60ZH+PSvB05+OvKkbw9rklvJK9QJyb67UMqVTBVn3UU051O9xmVsrqZRK44C3fAbn4rzVTqJbMQC7f9KL7knRi+rCGdnybJ6Q3uCbMUal9aya2cyR0Pre/Ob1O6f0ppr/+N1mesanyueTBY+nMID2V7qMQKNzbMDDGWTJE8nMesCCoYz/bJhAChcsZ1Qw2wXa980Y5dLU5Vzj9gCYqG+gwjoLCdszzidQZhlNWW5wbmw6nFjOelsm5QEglgF4jHWcT7ZHzfFp90H5dv+Y3d7WgzrZOgJlPjkGlvPJ/3Y9+6IObMf+WWaXk5+6mnq6dWYddcBYbz9N3fXTnhP+Z1/2f7ZjH3Y/lM86tuF/c2z6eaNjM9vrd84nvmjykseWx75sXurmv45P9kUezNbdbKPLOUabn3X2k7K86IVoSsF/zY+6gRDYmCZyqH8dCeY7++VtFGMby/HOyWSBPn0T6s+YIJ6jMrhwLCAi27jQN7dOLv8e2OqeGZF/Vo4zzd1A+a9n3CC4GZhL9z5VvMydsL5JAvP+s/4KVBQrEMXoGOviQpchvm9Uzi7FFKzMrwBkDWDUUMG1ShU1AL9dX66/UVcs0DrMf511SfCJgkUdc+NzE4fdJmyZ9n8+gYD9n+9AgzLCbmPy++UNWaZmARjIWB+oLPbFNeW/baCy7TLymbpeY1+B9sM2/stMHl0WqL7+x0br4VdVszYfy/23MeX65fdfTh35brcJKcP99DdTH/c74PegG9Xp7HFt7nd03vAbFo6RaQwvtmFpbsjYjnbJ5Ee9kZMndNQuzTWexmEvmsg0M/XjiHbuydF06T/Z+koJc3EGyn8jwyWAIu14X14pkL+8PFKyuIExqgaY4pf9uX5iMxgC6DIbWb+HMkpxhS4vr1zdKL5RbCjn1gpbwsQ2NIlntg20v6g0q6j8wRAeAxBsa7ej2Uy4E8AB4CwLC5awRj58sYHWXcvs/uhAw40QnnpTD/LyHVV4vXrZddSLycT9l3N8tAZutL2FpzWreFnH97Db8z/xz5xDvmPAO7znxoNuNKTgXyaLTGt1NRSj0lzoHuyYTCZWcYCbNbkbsxiOGyMiDRhsbp5Qzgetcs+QyMn/zTPNw7AXfHiNYwCcz1XMZaZ7RKVSFiqXDrbPaye9wqfLTcYkOcT7HtCb4o+GCaWmKlyA+5cq30BhZ7HFcC3gPyVcCggBEjqL6Px5qpDjx+Vc87AlL2A0zWR3W/6nuQyg8VXyvwGHLrNuIJrP9n/rGmA5ZfIqHHya+FRpwZCPOlAOULUuFPbH70Beevvxy+I7pi5cI2xHebZpz774jTHy4aums4387IdBJnRmkQ9jW4z9sE9bX8qyx4CboXpWn3yndaUs4piJ9uA727INZeO/xT9M/TkXtEDw53LdhT031Mf+zz4890JUp1OHtGnfVmR8FExqcz0jfGxMQ9nVPplUSO9Al4uI0CMulKg2M/Vjn7ruSXJS0HsPmJ7nQPnDY1v1BlitqvXeIqWNr5b5E7gpDuq+cB3wOh9e03NUlS5KmKgFbsBeVTNLkUL3Stvy+RUC8WI1cC04n9XflteS0ynEuaYXng42oAKICT8jdhio8uClA4hmMiFY/D/J7UijIwlIE5pGpxmdUMCIsDQ6qGwsLqDBAHuBlE50AtAltIztACSgonONTjU64siPYiS6gQgLYm6JNSaigONgX4SKsS9+x/f1fzrV6AikXjwU6CDE300nGPnoVOMhQFgcIWBESDAghVhb6kq4njlPWh7HQUdazrud80Crj7pzrKhaojGoP3UlzpfteXgQR81xcm45RntuuusncMcdRMck+U3sc2sPulGbvhstMjWaVS6Gq2FiY+lSMpkBbom0TvMMRRH2xo0KA3Zbm8WTM+u+cU+UyJm1K82NGLb5dzNG+FjvhzKZjrSJj6Y1c+XOq3WPUbHlC5c1Kpj/x9ZIYya5qVy0lNQoUVymPpbKKGBu7tgKXAwoAA/gRJA+UROoNqIaUIL0vANTQsDozQfGRA4QMQEgeBMu0RUoY9Qd2y9TwDBIgJ57QsoIZSOU61MFM8AhLw9LriUgRJgUdWA5MbJEXABoyq2q5RBZAdSoK9AlFIwYV8LAABkQZbADChjwsi8bG0sdACUPDOrLQAbULREDlA8oCYEDgkTnEP4FeImv5aFDyBf1tiqaYyQvgGQ/hMJ1U0BzDVIu++FBxX6BODHDRDLwP2BlwAoDSJbp/nl4EGpGTDDn6BU3XvlIOw+6UZaCj+5U0LWMmqkbr2fjVOVOayU96xVX4MYz4WLEefJUjk7AAIPtqm4lONg9YyI7e9e+LfWNQsK/y7y4DylgqxYvYUK/eCcaAyqYZ6FKsZLyeKkiZtKb+bWcOFyUb6DyYpvRFCYWtry2ZgBJKX24MmCBkCmgyyeqFggGd3YUHqoUpUi8K4oQyBDv+rMqT2ANvIDyCYXHywo15lhgUMM/bZ0QLUDHb8mDFJUMvLiuGEILhGlik5/BBQzTJVSLvBjQJV4ZNX1Sy39X1xMbDIj5BHBTFZIAj1jgM+2dGGfqSAgXoOWYCKtD9fIJ7Bitd76jPjS0LhwvDwBevY7K5n/rXgHc5Kcc1qGggS6ftAQZgs05QEUXVhXM23951TqQB9azFei0KhhcgSomrI3BGv/ovnjYvK0PjcN6njzoRlEK/qJf1EYsBDLcGpNbSLfaRYzCzZHcuVhRJtGt6Ojowt918rcF7hkTObf9D9ncPMFtqV0M8KJaieXlfzrbKBO48olfEGWLKwFQh90+NhoQ41iAJyqX40S5oRYBxFJViLwSfKWqUBQgEES5ogCBT5FUThlVFSzAl3kFAKhVlgcVdowCw1+M4gNklAN0gT3bsg37px4MagDWqD38vFaJAmj/+jJwhPIYyWZfn86DACXJXA8MiEC9sq8hWmf2T4wvx0isLmBmUAmKnYcCxwLw8fsy6o/mPvUH1rgrgK4ZLq7XACCnVYBfloc9DyHinwE+ipuHBA8ABkBwDnFfcE5Qz7Z1QOuBCXc4N5RHjDLAZnAI2x/xoBs1KXj/RgkGeFE5qY2/jVab2Ewuj28mz1bNZ4B7b45U8nOjJKaXPqY0obnYt71eRoIvXXTPnMjuIS1veTIcf7PRC9zcYZfHFdD6G35KJtfBfUBTH1cNChKlig/yD23SE1UAjHnw4l9lAAAPICavAa5sw8g1Bh0QDYA6Zpgwn7gDKIe8hBoCNVQq5ViQolxtiBvnHbDTMcX/KGcUov8DlTyACxDiWiCKARiSB6WI/5QBEtSRgRn8Txm4RnBRAEFGxlEf6kn9cB2QlxFwKG2OgwcL9WdblD/ls2/OD64CrhPWf6stQM4N4KfejCBkPfvC78z1Sn1xn1AWfmXWo+bZNw8dOuc4N7hwGCp81INuFKUl3aNu9FkgU+AfH95AGpTOaoDbpmJukXGN5ewz9xgVyFMd4wKNTgADP27Yf76e6J44kQv7Nsnm1knNTRBoG8+ubZxPoMUnv6uFrx1IwHfyAQnT667/W0CyHd/Jw3aUwXe7Hesoh6Y5zXcUHioW2PmDlHJMXXSZ7e2nDPKw37DXG9cgeSiXPKxn33QIstzW2f7PdWGPxy6jXFN+mLz+x2Hqr/+zzNaBbew6jHWUT9m2Tv7ngG04PlMHNf/t+WS/PDxQzwyJ5iFo7jMPupGbgrf/7MyvQMRAICBGtqm6vqzQrVcyiwFuwYwpZNbT98uiZ++XwVUSm6cv4S4oBJpDXDhcTNFlXKhbuuaSiycPu2dQZN+4Z40P0T4cPItZxtBWJnKh84uZyXAvBMp3J5o9NyhcvjPR0NaXi3rQjcwU/O1IbdordEc2dJr5gcAYmTauiVwc2Uiyp0lqoHs9q5jRgR5qIBAQI9vWqhLYoM29Lc0Syqk/l7lnUOTi8QNyaNobcmjKa3Jw6uuexUA75FqgdXey2fNiz82xqa/KseUj9Kr2oBupKXjjEpF57UVGNRIZofANBMfIMgZC6OfEduXkozrFpEc9rLh8XLeovFQ6kZmNCkc/ITjMwhQdzXhgu7qWwrZlAtk38AE5t/UX98x5yUtessmDbnjSpVMi576V4FOqdg/p+frzZZFZbRzwjmgQtcqXuXSJnsAYETe5uRzsmNx0pNmmUFT7dC1s1zVOIHv6lJQLfzwtcnqgyPnpIhfWuSfRS17yEsmD7o3SyS9Fjr+rAOktcqyXyAE9X0c+0s9uIqsUvnPaOvAdHsXwxdxhwNHxuh7MwpYJafb0LSXngO1xPU//6Hk6rHZukJ6rV+XQ73Xk3zPb3BOqHD69VY5t+liObu4rRzd55lnssxNb+8iJXaHvCLyZ5EH3eunyWZHdTyk4mosEtZTgXc+L7H9fgQt09bwd1c+D3RW+r0QPfKMJuiGwbZpQ9vYvI+dXdb0Stof7yIXtz8u+H+6TDfPukoNf+GTfqmfdkypy8cIh2bQojRz/xid7P/fMs+ixfQGWhddOfueTLcuL6NXs+XQjNAUfm63qVpvw2xVw2xWo2xpIcJA273c/dyV8Ub7A9y+F79x2TmdbVMA3iqEbAttmCtsBZeXCX8+EwvYQsO0t57c/J/u+Lyfr59wlq6fpNrN8snm+XqALk8mFkxvdM6ub7PhUdi3TsuZo2bM98+z2jOsoaLHPXFO71XYu9cnGuXr9BcjLMtZtX3T1uvDaziW6/cqKeiV70I2wFHzpHwne2V5kbzMXutYc+IrCN3iXwndfAPj+/arIvCiAbxRB18J2Q/O7ZP+Q8nLhbz3uE667xShbhe22Z2Xvd/fKujmJQmDrf5Hu+UxviJ+1xeCm4OCLsu3Lsubm8M/nmWc3axsUoAB38oc+eaaJT57S63XQKz75c6oD17D5ty7wyaKBPumqeTcorG/lwe9BNxJS8OFJKsdahgGuv7nKd7urfPe9dzV8V1v4Nooc+EYydNfWt7BNJPsGK2zXPK+w7ePAFmV7CNg+o7AtoxdiQlk9/WrYWts4T9XuggRy7tiv7hkWOblvsezQm4WbJtA2nnl2I1uvFqQA7KLXf8GcPnmppU9eaeWT0oUUqnoNH1ihcFzoXJcY6nb/cp+Mfc8nJfKrKtaH/l4EgX4CYNsyQzEjCPi01yfXKtujpA9+6ZNtX3nQjbj03wFVsa1F9jQNANuw5irfHRa+YZQv0Q6rXxOZT6hZBCvfSIJuCGxbJpH9wyr4wbano2yB7dausudbYJvgurD1N9Tuju9ruSfZSUHfPGQu7ED5I9K26Y3HzYUiCrT+VgyFxA3KzRpovWeRb/yek7r5JGNqn3w92ieHFIb4XLkeV+r/fV7wybSPHVhi49/3yTgF7pw+Pilb0Cdvd/BJjQo+ea2NTzapMCDPL5N80lnvgVqVHYjzOwP3Xs86avrpRj4Z9ZZP9n3vQTfi0sHhCpjrqdxAZpWvNqF3P3u18j2kynetwneBG+dr4KufgWAaXotg6IbAtlUSOTCiovy77sUwsO0l57Z0kT3flNQLPvywtYZiAH6nDnzpnmiRs0e+VwUcqiYiw7bpjbRkQDx5q1kCmdYtnmzVOgTKdzPGzc4N+s3YBMZH6IE3egzAtn/CJ3WqKAS/CF2OWwE1+nprn9xXzFGpuBVQwCPe8MnSwT7JkMZxRwx9zSd5Mvvkoy6O4q1RUbdr65OvRvrkift98lxT3VZ/63zZfVJKQd25gU8mfKD79qAbQelCkMguVa27mgQAa3jMVb5B14KvfgLfhR1uH74RBN0Q2LZOKgdGVpJ/17+kbX+F7dEwsP22lAIm/k3D1t+4qLevrOyebCft+rGeUcGB8t+uAfllA+NJ0UrVJM9zn0rOB5rJuLcS3bLitR02CwcmkZdbp5NHShfU5mx68+C4Fd+gZ7dn+5b7pEk1n7R5XK+tMNcQrZDfJvskfw6ffDbUJzN6OuqW3w/FWl5hvGuJT05+75PuT/nkUYXtvL4+yZbRJx+rqsUv3LKmgraA81AFuFNVNR/72lHUnnshotIBYHOzKjeQKUi31Vfl20yCd3VV+L57NXzXvS6y6Dbge5vQtbDd2CaZHBhdWf7b8LKjbP1ge3bzk7L76+IKlJtXtoEMMO3gQt8z1z3hIueP/yVbFiYyzbtA29yO4X97r1VCyfvMOGlxTKR436/lqbr3yJ5bcGlQdx4OPZ9NJQ/fl12qV8wujxQtKc2qZ5dNnpshWgylixK9v5QTAobC5XeiFcIDl9+rnSrh9nV80vxRn7zZzidHvvHJpO4+qVDcyY+PF8ACXVwPebL4pMczjuvhg84OoNfM9Mm9RXwyp59TtteRFlHp3HqFYzORnbeqcgMZ8MXtAHyfvhq+hy18OzrQvRn43iJ019ZzYds2uRwc84D8t+kVP2XbW2Hb08B218piBrIRAVt/A7pblxeX4Mv/uideZM9v7c0NFCj/7Rg3yJwe8SRP5QZStOcKSV/1WalbOa02NeOZddc7LuOvdd0e3Mj4hD/qmloeLJddFVQC2azq9pP3ksn34xNEygPDsxsbLoMVI32SLpUDSlxH/G7Tezgg5aG7fJhPMqb1Sd5sPvllogPiid18UiKf8/vT+nqiiuNq+N8kha7mI7oBRcvv+vUnPvlL74GS+X0ys7cH3QhNwXs/UBC2CADOiDDgW18kKBB81YDvBoXvEoXvJ+GE701CNwS27ZLLoXFV5b/Nr14F2zObOqqyLaoX9O25EW5k3Az/bB/jnnkxI9Y2L0xuQBYo/+0YN+K07gnkufpJZfTrieTZ5umlZuVs8u2YRKYe3KQ0Of3BybKfpsSTNfodNcSN+lHXVPLgvTn0BowvR/WG/Ht6PBnyxt16Uyb0oBuNRpQBCrVYXp9UKeOTh8s53+n4wpfLwxxV27SG8zsCTdwI+bKquq3gkwdKO9v971Mnb+/nfFIkt08er+yo2+eb68NXf9+HtNy5/R0F7UE3AlLwmd9FDjYX2RGRKjeQAV+rfLsofN8JAN83XPhq/uvBN5zQtbDd1D6FHBpfVS5ufi0MbHvImY0dZedXhWWtNqMiE7bWgvTC37Ist1y+eMr9BfQU/P2KaSIGyn+rxnHgb92o35f00v+n+eTgCp/0eT6VVCyVUz7tnlx++TS+jHk/ifxvstPJxk05tWdSqZy7oLzQOKMc+sonHz+jwFWFu35OfFk2JLG0qZPJALh60ZLSuFp2A13Ppxt9Ruvp7xk+maVKFN8tvlw6UPldgGnJAj6ZP8D5bfmdyIuqXTzIJ1M+Cr1O6BSlrB8nOG6FZUNCf9efVSWv1u2IZPCge5spOPiStm9VZR6KLJUbyPyV71MK37dD4Qt4AfBGhe/STg5gA8H3BtANgW2HFHJ4YjW5uEWP8WTfUNgeVNhu6iC7vioUZbD1N1TF4Y1aDzddOn9QNi9OFyHRBdZQrD+P98kjDxWWXI8/L/fef598OTSenP2JkKK7pHqlbFK1dF5pV62o1H4gp95sCeT0Dz55oX1qGZCqqjTIXVQaP5FBHr0/myreeNrsTCIVSuaUoa/fI926pJLqZfLLm+3SeR1pMcBokQBawGpbHqjgHl1VtT7gAtfNy2/FtYF7guVs618W61jOevu7ssx+96B7u+nUN45bIQgYRrVZ5dtUgneq8t3rp3yB72H9vunNUPgO84PvNaC7hteZANuO98jhSQrbbQpvYHskFLanN7aTHSsKmA4CYLsuCmFrjWba5iUZ5dKF0InOD6//OELVLv66j9onkFwdhkrDnSIlP14klYpmlKcbp5cXW6aXimWyyeQuJUS+KSXD2haXMsWzy3PNM0jZMtllRs4HpGneovJ215TmBlw4IKmUK5ZT5vZNKkdU/VLP36Y6N7oH3JhpdG7+qA/dP6ZcDdbbMQ+6t5OCL6jSfM5xLQSEYlSZo3yBrxi3gyrf/WGVr8J32ZMKW81v4Nv4Cuga2D6usO2UUg5/Wl0ubtf8YWG7oa3sXFEwWmHrb3ROHVzzlvtj6AX53wnZsjS7gVyg/Ddr+PRGvxpfstV8UR5YvE+ytRwg1e9NJ3P6JpF5/ZNI9fuzyHM1Ssi2UaWkS/Vi8nSzNLJocFKpVzOjTMz6gDQvUFQ+fDGFvNc5jVQqnVPm6zaEC/04IaFM6p5MWjyaTYap6kXpBtq/Z9FvqN6I9rl70L2ddGLJLQyEiExzlK8EAd9Abgf9vlkh9XlnkbGqjofWk41NE8lfvKSvc2o5MrWGXArS9Qa2PVzYfiynNrSWHV/mC3EjRDdsrQGrzQvvkf/OqAx107FtI0yHR6D8N2soUIYgv9shhTz8QCF5qkE6aaFA7flcKun3Ykpp9lhm6dwovTxROYe81TG1cS/M6J1MXn8qpYzNWEWa5S8qb3ZJKR92TSXfjU0o/3ztk9fappUa92eTMkVyyyOFS+u2Oc0+vJCxO8c86N5qunxazNSNhIkFBGB0mgvf7U0UvgrYfQrSsPDd+rZcXtRegp7LLEemKGx3KqBDYNvH5D+1vpXCNm+MUbaBDN/uvj/0d3DT5UvnZcvnhUyHRqD8N2P4qPHF7VeI/zbGJ0e+IAQokWRKX0DSpikoy4bcJYe/YmRZPNmv6379NIHM7JNUXuyQ2kAXpdv9hXuMD3fQqyml1eOZpH61LPLn1ATyxYhE8kyTDDL142Se0r3DzIPuraZjM24wqU1MsOvB9yMJPtBNgoMUtsz6FQLbD+XUuhYS9EXuGA1ba6b5N/8uOX9irfvD6OHsmm78sbfrKyXOFnXfRdVs2SpVpH6NHFL/oUwy7v3kMvnD5FLv4SzSuHoWqVMpr/HzrhydUCZ/nNyo2zGu0n29cyrp8Wwq6dYltfR5IaXxRR9a4fiLvxqdwOzjTlG5dHLym4REhehvF2j6xEDGNvi/2YZziI81vNti7JtzzsPYDCnXssIzfNy/A+xaxnrqFGhdIPOgeyvp0lGFWKCpG2OqWfjq911Par0Vvsbnq3Y4FLYn1zaXoOW5ZM2MmA9bfzMzPf2kx2ZT8GXZvuI+2XkLI8f8jZtj0HMJJFu996TGj2clz9NjpVrZ9DLyzbtl5FsppGqFrNKtQUk5PqOUvFmnuNSvnlEGvpJSqlfNLJOy4dMtYny6w15PIYNfSyFD1Ho/n9LAt1P9DPJIycLStXGmcN3YccEYNMCUiYzAWzbU6aTi2AEin+ThAcSDlGXmoafXIJ/ERDOM9ptPfDLlQ598N9Ypx39bziERA/Z/a/j4lwxyhusOeVVbJJOdiW5+muDA3+7XQphlGMsYEGHXYcDV+ngBP/tarQ/maT18skbryjq29a9DSHlu+R50byEFHx6vKtdOUB6bzF/5KnxNh1t3F7Y5Q2HrXiyxxZyLP56cO/qz+wuJnD7wubnZbkdFoox6d04gOVr0kTrrRAq/OVOqlkovH6h6/eCpNFL53mwyrE0JkWWlpFfT4lL1vqzyvi6vpJ9TclSWpvmKyvPtU8v7ndPIu53SyDtqL7dKJ6+2TSd1H8oqDxcrLm0ez2rgEZehy7FhjR5xQMebE5g6cfx7DlRn9/HJylEOQImBJc/8fs53IMrn58OcAQoze/rkyfo+mavbENLFQIUvRzpgZR8L+jujzOz5ZDkjyJ6o7NMHpU9ebe2TMe86Q3t5CABK8v2t1/2qaQ4ceSAwqc0f+oBoVt0nn3Z38tDym9kLN5ID1VW6DbOKUfeRbzr1pAwAz8OBsqj/Ei2L8lhHvTzo3mz6b68E724tsjs8UzfGVFP4bm8owUFNZdeKXCZoOzbC1t9QQju+q+H+SE7a8W112X0bnWqolj+n+KRxrRxSuFojqVK5qNS6P5MsGJhEPhuaWGo9kFUeq5RTGlYuKC1rZtGbNZFM6xnqXkDp9ng5hYx4M4UMevUeGf9BclNP/L/ckLP6JtYbO16EhiPFRAM0nMu6VZ35C4a/4Yz8AmALBvj0gaTnWIE8VwHKtIfM1NWpnk+ebeK4E9o+4ZOXWzqjvxZq/uebOQMTej3nzOgFQBnY8IZ+p/z3n3QUKvvEjdDoIWdf+N8BNWV20G0oi8nIgelYBXHfF3wy7DVnInPKYOBDpZLOA4KBDkzV2L2LT9rV9sm3Y5w6MydDn+d98lZ7n/wwzic1te4MCa51v0++VyU/WJV1i8d80rqWT15sofvX39+D7s2mg0NiWMTCLVpQEwlW1btxXiKjcAPdLLHJaLqhalC4Np098qOqp/i3DDXbkbZrsd5AqrT26g37+fC7JFvm/JIpQwFVVUlMpMRnw+Obm/m3yfFldl+3Iy1TFaN0n2ubRt57Mo282T6tPK6Q7lAvowHuL5PiS7enU6kKuuuKpmhcNAvdegrdV1v5ZNDLPnnoXke1MoPXewpdIEXzf6CuA2w045mlC2gxP+25nx3osQ0ARiUD4Z7PKNAe90k33RY4PtvUAbB1CfDb13/QmR/XuCL03DNsu2NdRxW3VBhSR5Tqh7pfhvE2qqbq+AMVInpfdFT4o2hxbVQs7szJULuKM5E5yhtV/oc+mFtpXb8c4WzLJDj2ODkGtmdfwHyHB92bS8EXtqrCbR7Bk9pEkxnoNpTNC5OZJ33YGyU2Gu6AbSvuMz5dm3b/3Pi2JsMBkENeSqw3WCbp1im56TB7oUU64yZ4skEGefepVLouswx4JYXegAlUzd5tOs9Qui1U6fZ69W6jdP+aEc8MiAC6jyl87yuRU6oVLi11H8xhlNftuEFiugFdrL4qTvy4p753JvNGXbKMobfMyoW6HPCSTz7u6kAadYgqRlkyDWMzVZVAFwU8/n1nAnG2BdxAFfWJr/Z+Vae4DgA30y/ijmCicTrRvlc1ijsC9UyeJtUdFwHAB+aAlknKKXuAQhPoMsE5k+Cw7MtRjquA/TXV+vypQMXdgOJdPtxxR/Agfl2hy1y7TBvJQwAVzcNjp67zoHszaX9PiZipG2OAxUHoGn+Zgvf4runuDyYmqmHTgruM3zTQNtczFNGn78aXHA+1l3vHrZZMtd+VGuXSq6K5yxkGfH8WaVW5uHzfo5S0fKCovPdUSvl27F3Sol56mZDFVbrt0kjnhhnlwXI5dF0i4+5YNCiJifOtWzm3Aia1AbsdYhoXzUIX8NEBxm+EqgR6TCwDAGmCj3nH8Z9+op+oVFwF+EGZ+Bsl2USb8/hrUbeAkPyoXF63AxS7dXZcD6+01laHghCVC7yBIi4I9tNc94PbgOG9PAD6v+i4CVCto9/2ySg1HggoZvyyKG3ADFCZqrGDKuTndB/8j1uEGcRQuu/oQwPo42YA7pQLvBfrMeJuaPiwo3SZt9eDbjhT8Lk1TkxupE9qE0UWB6GLMYpsy2eFJfjSefeXE9n7R+dbUrv4Xz9ok1DydPlEmh4UKdv/CymTP5M2GTNJuzqZpFzJ7DL/xRIiP5eS8U+WkAJ5c0mb2pmkaNGcMifnA9Iif1EZ/G4y09z85N0UUqFUToVFIjMMmGWoJMAOkALtP66Z/3FaEONa+Vmb6CyzvfshcxyomVaALmfCGABqt+UTdxKT0zD5DOXgDkLJWtgSUmZdRLgWWGc7y2z5xtWjZVMm+8GAMREJrGNbJr2hw4394U6gDOoV9njCfrI9PmtUPG6GTxTo/N4edMOVgiV4zzsSeVM3RoPFUehiwPLY1pHubyfy39kdepwpQm628Br5vx4RT8rfX15yteothe9/TGb3SGDmSv3fpISqdLPKg8ULyuv1ikvNCnll2bBEcmylNlM7pJYXkj0gtXIXkZoPZ5bGNbKYJueY9+6W+8vklBm9khmXQ53KuVTppTL78b+B46r5u1A4XqDHJ4BknVnmmskPBPU75u+CsesxAIuZ/Lr8WpEgLDP7cfPaPCFg1//tMvLZMu3/rCOvfxm2PuZ7mGVmf1oX1DKv+KGT0PruPeiGIwWf/sWZRSxaJrWJJIvD0EWRbF6SXS5fPOn+giIH17xp/IKB8l/LUEkopN9UCU143Sc/aJP2qEJ1UvfkZi6FAS+nlOUjEsnHz90tK0YnNPslROirUYmk0SNZTMzugS98xgf8xINZzcPg0w+TS+2qWaVs0VxSo2hpqVsl7vt0b8WA1haFFGFb/A6B8vgb+e35x33B7xZ2O/N76nqriv3X+Rtl4SIAsOTbruqU7VjObxVoG/KGXca2LAeyRFHY5R50b5SCL6rKfUWhG92T2kSwxWHoYgyYOLShh/sjilw8f0g2L05/UyOHMG7e5UN80qujTxb29km3LmnkgbI5ZF6/pEa9sp4OPKuiudG4qbdxo+o6FBPrn3fByzJcHd+PSyjvdEotCwcmDlFAnjlmm/3v6DnndTp/anOe3xMQGgWpIAOw1jXDA4sYWWJw8Zu+0MyJ6+W35tzakWj8b2NoATP7sOsoh33ze/0+2fHrfjPG+a16Put0iuFPpvOP/eLGogyA/PsUJ1KB+4hXurOcMm15/G8eBLo/rg8PujdIwSdXiByNYyoXi+PQBW6bFqVT2B50f0mRwxt6mZs3UP5ARhnLBvqkSKVHJN8Ln0qWCi2kZoX0smpaAnPjBNrGmr2JsRDwNnfAS1OU/xcMSiSrpsf9ON2bNVThjB7OK26I20Xt0knW7wUHuAxGoMNtmLY+AB6/EzGyj9znvF6HiAfeWYYPl0iDdxXeI950QN3yUSd0jbhbBmCwjo47fi8MSNPZlz2TA332Vyi3wryhsw867PABsw0dafP7OyClnjwcGC334dMOpIE6HW10Gn6ky+g4JGTNg+51UvDlcyK7nhE5EMdULhbHoYsRorX/L22luIk3TWxZlsvcfIHyhzXcAe+1SuC8mPIf58WUXeqmuClwW7Pg5S3ADKpoVjOzPFS0uLSrncXc6P6QvtPNQLenA1F6/wEe4CIyoc9zPun7vDO4YvArLnQVZACREW9A8sS3TqQE8b4AFFhXr+CAklhfwsC+1eUMjiAul7IYpYY65bcg3pbBE8T9YgzUsC+ZJKyNcggfA/oAnKgFwtpQ0ISrAX1e10P5hKHRkYYKp0yuAQ+610vHF8WNgRCB7A6ALj7BzQvvlv/ObHd/UDHvVjNTP4YDcsCZF1PmrdxAivRYIVkf6SqDX7grpOl4swZ4aeKOeTeFtKiVWaqVKKJAyexBN4zRAfWVNuUJFeO81KmiD0B9gBIm1lbhRpgZgxTwr7Me0ALdxtUd1Qt0gSthYYCRwRdEDxADTLws70TjPXUAFJgSLkYYGkDkt/hiuOPWQL0CVYYRv64QJ9SMbUapaka5HtH9d9D6MPCBUDK2IyyNKTzfV5UM7FvVclwRxBIDcG9wxPXSpZPu/ASxZVKbm7Q7ALoYPrm9v3Vwf1RaLxdky/Ji4QYnN/Hk9xNKu8dSyJCXEt32PAlsi4JGnc3pd9cdMQz4Zg3wfa6QAoY8pAAX7gGa+7gDGDzB23t36XkkP9DlvWQPlnXcDgCxwcNOeFeN8s4QYJQovllg3aWRo2ZRuKhRYoQZHMHvYvfNQIy1+lvhCiIeGAgDXzOM+TVnyDH7b6nbzuvnfOLaYEQa5bzcwoE26vwN3Qa13qm+bqMPfA+610jBR6fFgqkbb8PuEOhyQ26en0jOH//L/WVFTuyZYy788MITxbtHbyT/DpfbNcqhXA+4VxugI/Z2wgfOQ+87bb4DPeBFvCygZO4F+/Zn8hNX+7HClqY8rghibYEiPtYXmjsKFT8uMbY0+YEz7gLWkZ91+GApixFqDAMmUoHf6AsFNOBGaTPBDoqWEDDyA2L2xUg4U+f3nQfqLM2PWgf8PCQAOwD2oHutdPGIqty2Inti86Q2NzCFLpPexHXoYrgTdv1Y3/1xnbR95f2mORkov2fRb8AP366NBjERAworHlL8j7HO5ifigfUYsLXrKYNtreuA7YEe31lH9IFdZ8sz+1bY851lPLgBKRAGtPzPpylf81m3EVEUts7kZz/TPnaUNX5kC3YPugFS8OFP4qbKJQIDdwl+6mOtRA42k4NfJTcXARfSzUwKHZuMm4KJb84c+cH9hUVOH/zSqBhusEDbeBazDKgGWh4eu962t1PujYzWDAqcKAo7TSVA9qAbNp3fLMG7FEy74qDK3dFEdnxXSyYPKC9vdCkkHRvnlk71E5px4jS7UAT2aR+XjGPCz7Z9ZSW5fOmc+0Pr6fjuUdPpghL2zLOINubZoE+BATIMzLHLj3+jind5Ub0CPeg66cTnIofb6h3JZN/MOxsAXrHRDreQeaMqic/nC7H4+tPZ74VzOx0BqL9A4IrNtkHVxtbZ8WTz4uzy3+mt7g8tcuHUZjm5rY8c2dhHjm7q65lnUWLHt/SWE7umulfhzaU46144ffov2bfnRbmM4t0eR+B7pKUMeb+U3FcqjUwaeJ9s+eZx2fvL4/LlqKRS50EHvEzYTJhVXGlyA9uN0/VzeVpZs7qT/Oc3UMJLXoqNKc5B99zFU7L+5I+yZP84mbFrgCwP+kCCtneRS7zeZnt9tVgM3x1N5NifdeXyVj0G/NUHWojsaSKHViYzc4imSuGTpImdnlic/YEgFlvMwvavhalk5c81Zf62bjJn/0hZeWi67Dm3QX/pYOcH95KXYlmKU9DdfmqVTN39jiw51k8W7Rsoc3b0kelBfWWaGvDdvv1puRzb4Yuf2k7AzhSVQY1k/4pk5mWByZL4JEt6x+FPp1ogmMV0C4VtGoXt4zJ36wcyffcQmb2zvyzcM1CWHRksYze/Ir2/flLO/nvK/eVF1h34Vaat6ivT/xgoMzzzLLLtLxV0G+5490KwTN/2oYza86QMXNtORm98XqZt6y5zd/QNge9Utc8VvluDnpaLcUH5GgA3kj+mJzNDFnEvMFqHiTkCAS0mm4GtPiz+WphWvvqltsK2m8ywsN09QObu7CND/3hWnpv/sDSbWFjazi0un6+f4v72KviPb5PWU4tLx0WlpP3ckp7FJJtXSjrM199FPwOuj06b51qgddexzstKy8sLHpdL+nezKc5Ad+Px/8mIHQrcde2k/9o20m9NKxmwpq3C9wWFbzeFbx+ZEwR8+xj4fhbUTbZu7xo73Q6EjR1sLh++VExy50guie+KJ9kz+mRyd2di7UBQi6lmle2qRekUtnVkrj44p+8eGgpb/d2G/v6MwvYhaTK+kDQeV1CaTywqbWaUkGfnVrtC7c5eNdTc2C0mFfMshljbmSXMb9VsXFFpNaW4tJtTUlpODpw3OqyVPqhbTi4ecN31jON6d2nTOxe6F4P/k4lb3pLhQZ1kwNq2IRYCX/3uKF/ge6XyBb5bgrrKf9sJL4sl8AW6B5pL79dKSPmSqSVXlviSOoUzNh1/LiOAAgEuJtkVsP1fXZmz7aNQZbvHge2Q356RZ+f5wXZS0SsufBTHvL9HuVeByKnz/0jXWVWl9fQSV+TzLHqs7ayS8vCruSRb6RSSpWQKyVT0bileL4M0HVvUgA5rPa24gbHdpuWnrrnr+G6Wk9/9HpLPD97Ak/wtbB63DJOXT3c5+RzQFtPrpLgUfSK9VH42u9bVuWaoi9mvX9l233Zblt3x0P376EoZtftJGbAuFLj+5g/fUQrfqds+CAPffrJM4bt5+zOxB77b1PY2U2siWxcnMxOD4F4oXdAJ6I6pQ1OtG2HV4oyy4tf6Mmf7lbCds6O3DPr1aXlmXtVrwtZa62kl5MkZleTomdCIhmXrJhkYB8p/W2Zv5nBYc7UGE0qYz0Dr7wQDYg++lFOSpk4olbtml7oDCsojb+WW3Penklof5dPfSFskE4vJE73yS9MxRaSNQoztmk9QRaxgY1nd/gVdQOr/BtSh5QNBC2+UdL2BBTV/AfPAZVnzCU4eq7Lt93qDCko9rUtLhStlV38nj9TuU8B8B6SNRxeRJ3rnN/m5vqgjZQHiBkMLSYMhhaSN7uOOhu6/l8/JmE0vy7BtHa+CbViz8O2/RuG74TkHvkF9jKpy3A79ZGlQd9mk8P13O6FmMRy+bkfajmXJzFSFVco44GXYYngng4kqC1G2izPIit8aGNj6d5CFwvZBA9rG4wvqzRUYtv4GYD/9tZd7NYhcuHhOXppX09xggfKH11A8gIPy22GznU/+Z7m/OvO3xhOLS0MF7oB5OaXr1ELSVP8PlC8umwGWQixd3mRSrm0W6bSktIGWcTUosABcnX4FJHPxuyVrqRSSoUAyBXIe6biotFTsnE2ylb1HcpRPKalzJpH8D6cx5x6FfG/rLNJWv2OlGmfU/zOb36No7QySXbehrEKPpTMK+9H380rOiimlYPW0kj5/Mnnsg7xSsmEGR3WXSCEFHklrlG7JRhnlwRdySMeFpfQzp6TXulBOttL3SMNhhYw7pPDj6SRn+XvMdimzJpby7bOY/HcsdH89tFhG7+kcELLXtlDlO9LCV8GLzXDhuwT4Bj0b8+BL5IKdjN1OeLMomexe6pOG1RzoMhdoTJmTYIOqWuzPJZnly98aKWx7GGU7x/hsB8rsoF4y8H9dpOvcKjcFW2vcwO2nl5P9J3e4V4TIt1sXmBs1UP7wGFBtNr6oVHszt5RumkkK10wnBaqlMZ+lm2WSR3Q5622T1Fq98SWllX6u/Cq1/Pt7POk0pbDUHFfKqN47Cb78JgArRaa7pE5f1GfosRtlquAFYMXrZzCK9wFt3qfOnsQoyxINM0ra3EmNqkS9Jk+XSJVofnn4tVwGwq0mawtClWfqXEmMSr7/6eyStWQKBb3jEgCwD7+WW2q8l0cSp0hgII66feDZHJI8bSJpNsZR0jVVbfMJ3Mu3y2L6Ce5RoPKbA3VgnatSKum4oLRkLJpc8j6Yxuz3gedyyD2ZE0trfei+91mzOw+6Zy6ekFGbnpWhWzqEgWp4zU/5blT4bn0/RPmGwvdD2bD9ObmwnUnQoxe+xOee39DAebkmk7Lv0QfCzsZyYEUyA7i82RzoMoNTdI9KA7S4Ef4Atr83ljlBfrBVZevA9il5eu4D0iQEtlffwOEx1M7I799yrwq9qIMvytuLG10FxfAYQHjolVySKlsScy6vZSmzJZaHFAStXUXdRKH69sx8sv3HpCJ/++SSQnfOZxlk0Pzs8s6svNL606JSR6FMvrD7jGtmoDu8sEI3sWm6+/vYUcCNRxY2ihH3AQ9HlHHaPEmldu8C5iFXpFY6VcdlTGslY+HkBrjkS6tARcHy++Aj7rSwtOR9ILWky5dMH4ppJf9DaUw5ABa3AXna63a0UKgPQEZdo5qBeod5JSXX/amk0lPZpMa7ecz6tjMcJY0LJI3Cv5U+JLKVTSFVdZ+dFpeW+oMLSdq8SaXpJ0Xl/c/vQOh+u3/GLajcQObAd6B+H7nhGZkCfI3y7RsC38UK3/VBwNcq34ZXADHSTRXupW2NpMGjWeXNpwrJ2i8elVPrG8r5jfXku3FJ5Qk3ZOyhsk5HWkRNX3izFgLbpdnki9+bKlx7+inbATJL/+//S2d5eo4D2ya3AVtrNPXbTC0p24+ud68Mkd93rTTQ5YYOtE0ga6VKi5sxQcJ4V0E2kCVIFE8VXWFpqvt+ZlpBOftrfJHVeiv94Rrf16j95ZO9PyeWKUszSYfJRaSuwjcu+3sdf6jjXijdPJM8udQBKDDjs9EIB7q1e+c3zXS2SZ0jifH7Al1UJlEo/K4WupTBOhRnniqpDSg7LytjfMQFa6Q1LQ+A2OQTxz+MPxnAtlIFTPnsl4cBZdFq4aHafHwxyVPZKatm93xGYfPQ7aB1Au5At83UEga6lRXkhL3xoEiXP6lRzHccdE/8d1hGbO4iQza1DwDRWzWrfNuo8n3WgW8Y5Qt81wU9L+dDlG8UwRf/7e6m8nDFDCE3fbo0iSVb5qT63YHEvUWc6AU7pV1UWihss8oXfzQzStZf2c7a3lP6/fykPDW7sjQeVyBCYOtv+N76ffWse3U4qftnbVQhhV/tcpM3GV3EKCd7jq9n+P+a6s1Hp0xT3b7fvJxy8teERun+p0r3p5Up5bsVqWXbD6p+V+ktttYnh3+5y+QDvM3C7D8uGX7Vh17NJYnvTmB8sbU+zicPvpjTNOfrKLgAa877UpqHXLHa6Q1ccTUQTZDvwdTSXgHH75FGVWXVl3MaVYpavStFAkmZJbE0H1fU/OZER9yT+S55+PXcUrtvAeMqQF2jhlGuQBcIA9GyLTIbt8fDr+s2qsJRq9SnXOvMJk/afEmlTLNMBt6oZOrSaVFpyVAkuVTqkl06LigldfoVlJTZE0uzO1HpLt8zTkbvjgiVG9hCfb7PyNRt75tIB6t8pyh8FwV9JGsVvueiEr4K3n9W1ZV5oyvJyx0LSM0HM0nVChmkYbUEZlCEmRvUnQs0EBgjw6zP9o+lOWT5Hy38YNvPhW0P6fdLJ3lqzv2RAltr+ArxCa4/8Jt7hYh+/9UoLtYF2iaskffxHvnk3laZpVSjjEapJUoa/wrQ3pU8gbmZSzXJKGWaZzY93WzH9rUVpC9OLyA7f0oiF36Lb5bVGlfKuBRem5FffvgqlQEyynfS4sxxXvHS0iBiIWeFlKZzCsDd2yqLWddclWmhR9MauKFW8bviJqryQg65XwEHBPHRom4f7+mcY9QqPvUKHbOGuI5YxjaUna3MPZKvamoDclR0GVXZJjRMrwv8w3lVIZMHXy31Atr3tc9qfPQMkOC35EFAXYvqg8CWX7ZlZnmsW15pO9MBf8mGGY2av6N8uofO7ZKhGzvJ4I0RqXIDm6N8W8uI9bgd3jMDLPyV70KF75qgF+Ts9hYKxiiAr6pdJr6Ro8y9gF+3iez7MpmZ35MJmqNqPl0L29+XKWz/bCmzd/RW2A4Oge3MbT2kz48dpfOsSpEKW3+j+Yq6DQ4OnZeh31fPmJsrUP6wRtOSG5yZ23JVSCX3dcgqFbXpSWdMhU5ZtRmaXSo/nV0qPpnN3JzxE8STuv0KmBvTllFvQkl5ckphWbw8vXTWTzrQmk0sJvUVsPh0hy/ILhf/jGfgO3JhNrPMvw5xzUzEghrfAaf5LRRYqFjWEZLF+WNdc/2OC8A8xPS72UZ/E/PQdP8nL7+TLR9DVdsHHzCmbANbm88t14LaANzdN9/Jz77Jb7bR78Y1pctNHl1GHr4DW/bP+jsqemHRzqEyKhJVbiCzbocR67vK5K3vmhAnlO/MEPh+LKuDXow6+GI7FMBBjWTLoqh7cwQuBMK/fv8styxf1Upm8QDyg+2MbR9L3586KGwrSqOxwLZQyM0R2WZuCL2Zft/1lXul6Ok5ukHaTi/t3DQBtvE34yYYU8Q0KwEqyjZePJ8kTZ1I7k5/l/nkf6N4kyWQYnXTGx+iP9RbqhE21mii3rTuMmu4E1C+g+bnMGr3wh/x5RVVwEQ3+OeLc6a/C78NFnadWRZgeYhdb52fBSw/wP/XqkeIBVof4P87Kk5379nNMnhTexm0oV1AOEa2OW6HNjJc4fvpFoVvEPDtY+CL22EB8N3+opzZzlsrIhm+UfiONKtsf/s8t3y+qk0IbOda2G79WJVtexe2+aMUtv6GAnlrcSO5ePmie8WIjPrhbdN0DZTf31BR1d/OI7kqpjKhQaWbZDKKlg4VwoToGed/mrzltVmaW5upLMNnaaDud3Ney23A8icUvEs/T2d8vL+sTHnHD6SIjXZHQXfW9t4ycteTZl6FQFCMKrPKd/j6p69SvsB3vsL3b1W+kQrfKICuVba/fZ5XPvurncK2r8zY5Q/bj6TXD22l04z7DGybRhNs/Y3Os2+2znevGJEDJ3dKxxnlTRMzUH5rrKdnHRWL0s1ZIZUJni+nUCXIn46YYnUzmNhQ4Gv9vElSJrwqNOp61lgh225yETlFp5sqXtQuAyoC5fUsZtodA93tp/6SYds7ycD10aNyA5mBL8p3w9OqfN9xlW+o22F+UA/5K+glOW3gy2TqEQjfyILuLAe267XMXz/PJ5/93d6BrZ+yna6w7flDG+k0M+bA1hqK9cW5Nc3oNJsm/9rLdJYEym8N6DJE9L52WQ1UrSshrNHxk/3ee0L+T5Qsvonr9Pft3sgaTCwhwxZml/FLskh7BXCzOyB+Ny7ZHQHdYLlsQrhG7FSVGwB+0W391rRW+LZW+Ha5Cr6O8u0hfwa9rPBtpcCMIPhGNHQtbPXz1+UFFbYdZaZC1l/ZTt/yofT4vrVRjo3GFYhRsPU33AnMw2DTP2cPS+cZ94d0uAQyoPnoB3mNciV6ofIzOUwIEj3mKF6UbnkFMiFM9KCnyp5EkqZKaHzAxlfoNzdAIMMFYYYTq3HTNp1eShpNKy1tWDan5A2VuGcxx+4I6K7/50cZubPTNSe1iSkWAt/1wPftq5TvPBe+pyICvhEFXRe2uBH+t7yALPu7Uyhsdzmwnbalu/T4rpV0mK6wHauwnVA44MUYU4ym/tOzHpTTF467V5DIvL9GXlftml5yhSfDSq2KJWg/i/6PsmXoKv+zPHm6u6RcmywmesH2il/PyMMELVVfymlcFKhlwpzwHwPtKs/nMCO1zPDlsB03nsU4i/PQvXj5gozf/LoM337jSW1iigFfbJgq30lb3zbxq/7KF/j+EfSKnAyBLxYArNez24QuipZJaPj83xeFFbZPKmz7Xwnbzd3lo29bKmzLOco2hsPW31C7s/4c4l5FImf+PSnPzn74um4AqzYrPplVMhe724zftwDGktyT0Ix0Kt82i4EoN1/YMsIaIUaMhEqV9fpDi4mQIDztemo8thjnBfXOQ+RaCh7lb9ZNvHqdv/EwJCyMB5d5wN3GQ4lzGyh6geHJdnl43ERxHrqrjn4Z5SFiEWUh8F3/lExS5RsWvsxJAHxPbG+tIL1J5XuL0DWwdd0IwHbp6qcUtgMUtoNCYDtlczf58JsW0n7avY7PNhbB1lorvcE6Ta8gR07vd68kkS82Tr9hJAM3OcBALaM+mVil5of5TMB941GFDURZH55BF0CFbRImuRLe1zNihW/GPxzTjPPCQwbXDG6Y+oMLmnOG+wVYcWwAt5GeW4ZR8z/henadP1TJx0AKHkYMWmE4LlM1MuCB/BbofAJU4Gm/82mArfmYdIf93981uxngwH7MciCseRicYfapD4Bqb+Q2+2T7q/ahx0FYIvCPs9A9f/GMjNn8sgzbGntUbiAzbocA8J0VAt+e8lvQq3J8exsFajiV701C11/Z/vJlUVmypovM3DVAbZDMC4HtBwrb5tIuFsPW3wDs+J+5xp3078Xz8sqCJ8zNFCi/v6F8uNG4QbnRmk4rJc2mKCBuQmkBjaYKCVwTgQAb1tLkTCoNhxYy8AhUXkw3x7dd3ER+0BqwA0mY65aYZobtMs0i0GLASb6qacywW0aRAWrmQLC+ccoCiszuxlSObMcoswYKaoCNq4ZhvfxGfDKijAckESh8MpcDczIwJJh1/OaMWKs7sKCZ/Yz9MVINgDNxjvOAKGSmeOQYKId9MIcusKWO+Pyrv5Nb2sVl6P5yaGEETWoTMyxU+XZW+L51BXzx+c7R/4HvP+GBbziha2HL959XFHNg6ypbC9vJm96X7l8D27JxArbWgF6HGffK3uPb3CtK5MftS83otZtppjLQ4Y2Z+cwcuTczUxjQQCGXaJBBSjfOZOYYSJwiocSL7w6+0E/mJ2BoMcNLycc8AUbxBSgvppt9IBWontZA6qnlZcy8BSUaZJRGqjDLqlrNXTmVUZwVOmaTzMVTSI138xpIomTxcROSZ0eZofqZlAZgAmozY5hCF1gzPJeZxSg3j0KTOXKrKDBz35/aDDEGmMAaxU2+mt3zmuG99RWi1V7PZeZZYIgyvw8PhqKPpzfQt3VlLl86T9mX2aeWwfb44wF2969axD3onr74j4zY2PU2pm6MuYbqdZRvZ/OqobDKl///F/SawretAvYa8L0BdENgOyuewraELFnbVWE78AplC2y7rWwqbaeWiVOw9bd2c0vJsG9fc68qkUuXL8nbi5s4/sEA+cNavQlMSp7DDN396ss0Untc+N/DBjhQT/ETxTOvqwEUNJWJ+2VQBWqQWa74n4m4ATHj/O3Q2dhmIdBVAKIimcCc+W2ZaJyJyzl+gMhcusx5wCCTpz4va+a/Bcj5q6WRYnXSh7h3ULdmInPcOfoAZVayB57JbmD67LflzCcARw03HlXEqF5mIUMto64zFEpuolAKP5bOTM9YvG56o4CZr4GOUOZiqPFOHjPgBTcIw4EL10xvBseUqK/7+LqcAW+lztnNxDy0WpgGsowu+/DrOAjdr/dNjVMqN5ABXpTvUAPfNxW2PWVeiPLt68L3dTkWCL7XgG6oslXYflVSYfuMqloLW2fy8E83vicfrFTwTC1tYNssDsLWGjdrm2klZevh1e6VJfLn7m8csN0gzAtrpNB9blpBufB7fPnvz3jy+gxtuo5XCATIG9aMe2FMUb2BM1wxeQ4DMAhNYwIdu4y44AIKmIbDnSZzoPJiuhnoqqE8gROgRRkCT6ZURIky3y1gZdKZIrXSm98HxYkvlSZ+kcfThfjM8a0S5VH15VzSdGwR07yvrNBlljIASZlMPA7IcQfgTgC6vPYHPy1RJ8xwZt0OhR5La2Y/4wGHbxegUw9aGChj8vDAqK51z68Kl4nLmTqSBwdgx62BymWyo+7fxDHo/nPhgAzf9JQZ8hsIVnHN/OE7YcsbCt2eVynfnxW+R7e3U+DS2abwDQPdUNgmkJ++KiOL1z2roPWD7Z4BBrbvf9VY2kyJ+7D1N27iPiu6uFeXkz5e3sEsD5Q/rDExzZxlGc3Q3a0/JDPLwo4iA8IMcvCfSwG1xk2PT5cJdFBUNKEzqgJjCHGGgsklR7mUJi4Y1cvrZFB94a1XjDMFLhA1ilZhRXOcqRTxraNsgSXA5W0RvK2hyBPpjdIHhAUfTWfUJCrUulfogGPKRl7Dg1ot0TCD8Q0DZ1wGnFNAj++Y5cCWdUSWUAb+XEDLxOU8AAA2/l9aGUUeT2/C91C+DG4B4Ex+jnsD4FNmvodSm1YIypl6NhlTRB7vkd88ID74snncgu5nuz+J8yo3kBHjyyi3IX7w9Ve+s4J6y09Bb8gR4BvUSGRbfdmyILGsnwps48tPK4Ht88ZfG6psB8ikDe/Ieysa3XGwtcZNAwDX7PvJvcJENh36UxWw06seaBt/w48LVDd/n8yA97ev75FWk5y3Qdh5E5hRDEX80ZzcZjkT3NiOtBQZ7zJqluYub0agQ4hmqx1azHSCGYvcbRQYMbvACyUXth6xxXCrcOymt98FKMuAGZ/Od+c3Mev00/5vOhHtsesnHV02H2XZcu3/QNe0DPTT7sdsa9frPjG2I5+pA/vT/LR2+DRRD7qeMmz4mK23ibzQ/+0+2J6HyLtL4lBH2qFzO2XIpk4yKAqmboypFgLfdU/KhM2vK2x7XNHhBnx/3vGWHNnaSrYsvlt++KqsLFr/ggvbgSGwnaiwfffLhtJ6cikXtkVCLsg7zeg8+2BZKwnWP5sGff2CtA+nqkTBPjWlkOz+KYkBb9CPSeSD2XmM4sXP++jY0mYehf/+iC/jFmdxJiqfUkLqDyxolB/zuSZKFjh0DDdDsToZ5J4siSXBXfHNixHNm3H1Bg9Ul5s1gAY4rljO/2GXXcP8oRNofUALlDfsMv//b1S2Xa+f1Oeq47mW2fycS7ax24Xd3v3/inLD5nGNjr04Fb2wYOfgWBuXG9EWqnwVvlsc+IYq334yd/vHsnTjKyYaAdjOd2E7Yf3bCtsGCtuSdzxsrXEz0Sv+vx1fuFeayK5/Nhu/tlE5AbbxN5RufQUs8+Su+jZFyKt4Vuv3yUsyS5+5uWT60kzOWyJ0+bLl6cwrgGr2LmB8uDStaaLSJCZSgSYvw4sZWlz97dxm0IWFcDy9JfF9hrez77qmx01sK/5Ou4xzYVUf+7gewGxLwIZgXS9vVJiFPyrVfA9Hi4BWAy4H8gZqQThK2ymLh13Y9WEtTkF3z9mNMnRLx2ibujGmWqjy7WRG5/FGBqt8GUUGbBcobMevf0ve/qK+tPrUhe1ED7b+xs3yxsJ6cvHyf+4VJzLmp/dvOGDCGuBF2eJuGL0wm+z9KbHzNghVvuadaApb/3ekrf4uhWmu5n4gTQhQk6VJZHy5DC8mhIyRaKlyJJGsqm5tnoR3xZPHe+YLaUZfZQoHgAN4eJCYprOamddBIWqaxpqHpjEvVMRPSWeUBRWdSAUecUKgiBrAv2q3s012/jdzRWhLAHcIEQe8zohzZUCtkKIsWhD8T13tvBKYrRuApMlv/zduBP3f1tUcI3XV/Zrt2L+WTX7MuAt0PXXCX4xfnKHT1J0ICVNHNXtsdv+UgfFuM2JtOQYeHMQK85vYfGxL5xg+YepqBmDow8Xu35xLPecmv9aXY6B1FCfcCzT6eOPAyBg6qU1MMAvfwQa+rxnlC2wnrPNgG14DIiu3zHUuOk0HT+02c0oY1RQgfyCjwwz3QetJRaXvvJyy+PN05p1oO39MIvKnA98TvyY0b4dowc2vZVfumt30pidNFToZOlNIMrSY5UykQ885nWx0BtFpY1VmWANExLAS20ocauPRhaXeoEJSoVM2EykBRIhpJWqACXson8gBAzm27ZHfDAgAPnkqp5Kqr+Q0oWr4mIkGQA3yTjOUOeUTR/zgizlM7z3QI8YV5UhYFsdFGBzxxQx4QMUDeEKymBaT80rZ1LWi1o+IBAYroPip66PvOx2Hj7ydR0o1zmQUPlEDvKkDUJppM7UMq7CJhiC8i30WejSdOQ90ehHmRTztva0zm303GVPU1NF06j2WzkQ4ENFAxx4PI+rNnMkcL+4cOtZq9XDe5UadTVSDOZacBrx09nEMtE5Qw3HiHWlbTv4hw4M6ycB1nsq9kZk4XwXw0PVPyttf1lUFVsKDbTiNG+j5uTXk/H9n3CtPZOpv/VTBhT/+1hqdZ/UUvrwfrea4UvLhnNxG+a77PrnpVMPXC8CAJ2Bh3wZW/QrI473yS32FAP8b5YViVSBaNXm9ZjxQIP6XgQcE9gMDoEBkBD3wgKl2n/xmIALAA05Vng+FLiAjTIuwrnwPpjFwzPtganlI4WtjV7MUT2HARLlmEIFug8K8vwuvL8ompRRYgI78DJMGdoSKAbH0BZKbsCv82OyDgRJAksmE2IaHCg8YogsI2yKkK3fl1KauFv6EaJEvl+4bBYrK5Zzk0zIZNYYPHMgTdgZQiUDAhQNw2ZawLoDLe9keeD6HFK2T3tSJhwb7JRSspm5DGBoDHzgu3vZLGTyUOBbqxYsyOT4GXdBi4EHBfmN9nO7l4Esyeet7MkKhGwgynl1tPJz6rW5lbujoelNDbDWgtnjNePfqEzl+7oh0mfWAAunWfah0tHWfnUeWfJHO/M970cLmARq4AWhSA2AAyP8WsHZ92O2uMM3DdihFXAPApWTjjAaOFXTZk0tLGziiUmmCP/9jeQMJBglY6BI+lanI3QZAjMgCiLwXDoXM98e65zPgYla2JqqiCddiv8CcJjsPCtwTQAiV2fWrslLp6WzmO01ywEWznocByhF43qcGKPmspPvgNek8aKgro9NQuU+vuFeeWl7WPAhwZ6DOGfyA8qVTkXPDGzuoG4qYc0j0xxO9Cxj1isuGOlRSgPIWEMLK2LaxPsiKN8hgHgDUiReLcr66fFlWOi7S86Uqt8GQgnqMxaWwQpzQMs7p89+VNxA3LYh6GYzbgTKAeffYDt11x38wboWBMXzqxphkQJe3V7SbXsbrKLtJYwKUrrOrysnzx9wrUGTh6jHh9u1ey1qp4fNFAQdaHyEGdLX+AAXA4D5g6CrqDRgASqCHYsR1YF59Xi6lCUULcS98nF8KqtLssKCU5i9lVKJVpcSgovTyV0trFDVzQaBG2c7MK6z7KK3NfmAE+PgE9BU7Z5Xy+p36AU0gSN1QmdQVyBIuxxt4K+pDAJgCcOrK/vMo0BmgwP4ZqUY8LyoU5Wx8upqX40eR406h3hwPShfXBi0JAI47BNcASh+QU2ceLsQBEwNNnVjP8F7Ay3liZBux0jyAUMA8lFC6+H9xw+DC4MHjDI7IHfuh+9+lCzJu06syLBZN3RgTzIPu7RmAnfbbAPcqFDn332njdkA9BcofHiNmNyred2bcC4MKGtVWRZvrNP3Nq8f7FnB8qN3zmnw0i/G/4mNlvVHVCi+GzKJmW6qyIx/Km7w0683cvrqe/1lP5IOdiAalh8JGObMdPlImjwGwdFLxHeg+1o38xY3vlhF2NNsBFW4BOr/4n0+UPdCjXoAe1Q50OQYgTX1wCeBaoFz2SX5eIErd2MfjH+czHYM8FBi1xoOIwQ/4m6kv5wg3DOBsOKKw+eQ3xrfLcF5cCChhYM1AFsx5MOUzsAb85vzoOaA8ziPHHat9ur8f/lxG7fY6z27WPOjenuFH7Ti9vBw+vde9EkVWbJplFJO9wWOyASbqatUr4OKTdUACoAFDm8ffbQGsTNSA+7/dxkYf+K+nnJDvutxEK6gBYeqA4be238nHfk2ZfvWy0Qo2n81ryzb7d/3e7NNGFtiyrPE/6+3/bEe9jBrWfVE3tqN8ljvH70ygY47LPUe4QWw+6sh31gWqT8h+dL/k7aCtiVgbMnbi3yPOpDZb496kNpFtHnRv0/Qm7aBN1GHfvmpeB0X6V1tdr8x/QjotKm1uQs88C2RPLi4try6sHTuhu/vMJpkY9IoM3NBc+q9tERAungU2D7q3bs0nFZUm4/OoaikofVc8dcVLLHf9s0m+37FQvtvqmWeB7fvtC8ykSbeSYoR74fiFkzJ/1yIZufU16bumscK3eUDIeHaledC9eWs+sYg0HpdLmk7IL6993kEWb/pCLl666F6JXvJS5Kdohe7Z/y7K5hNn5esDZ2TpznMyf/tumbR5rgxd95L08+B7Q/OgG37zh+0LC1rJyD8Wy+Idx2X53n/l58Nn5ND5i34zMnjJS5GXog26B89ekE827peFh87Lsr0nZXHQYVm4/Zh+nlH47lH4zpeh6z34Xs886N7Y/GH74sI2MvqPZQa2y3ad0wf9Mfly3wlZtOeEvPXjBnl54bfu1emkuau3yDtf/CrvLPtB7UfPPAuxd7/8Vab/udG9Um4uRRt0FwcdkiFBJ6THH9tl8N87ZcrGfQrdQ2Hgu1c+NfB92cC3nwffK8yD7rUN2DYysC0gLy1qq7D9zIXtWQPbL/b8IzM27ZVXPv+fVBo6U/L2mCBFB06X7/Sas+l7/V5q5AIpOXyelBw2x7NbsFIjFkjpT5aoLdbv8wPmiVqb63wOVRs+V0qPWugs4/+r8l7byoz7TJ6c9aXb/XpzKVqgu+/MBYXoXunz927p9WeQAS82SOE7edM+WeDCd1EIfPcpfBfK0HWv6nZNPPi65kH3arOwbTahoLyyqIN88ucXCtsTV8B2+sY98uLSn6TikBmS58MxUrDneCnWZ5KUHDJLmn26RC4FhzoaXl30rd5kc816z27OOJ9Fuo+SPF3eljxd35UiH30iJQZOk2K9JwbMH+nW91MpPmBqyPeiPcZKgdf6SLFeE8z/V+W/jpUcOltemP917IHuzC37ZfDWYwa4/gZ4P3bh+6kffBduP+rCd79M3rxYle9rCl7g2ywgjO4U86Abag5sczqwXdxJxqxaIUt2nJSlwHYXsD0u04Dtsp+lQhjYhpjeeCWHzJZl64PcK1Vk65HjUkZBUbz/lCvzenZdKzF4lmRv3kWSZMkp9xQpLSkKlpDEmbJJzvYvSUldV7z/VAPlEmrF+012QNx3skJ5uoJxmvkdSgyaEVJecX4DXU65bGe2sevcssxyv9+J75RvTMsq/P4wSXv/I2ZfqO4Cr/eVVKUrSpEPR5vybqZOsQq6QafOSf/1+6X3Xzuvgq61Hn84ADbw3egH36Cjskjhu8DAd6kD3zVN71j4etAFtoUd2E4sJK8ueVLGrvpKYXvKwHaZge0/MnXDHnluyU9y36BpLmxV2bg3ZlgrMXim1B67QC78Fxp/2X35z6YpGii/Z1cbYMr77PuS8O57JLeqXAAFuHJ1el1yPfm6lBo+Twp/MFyyNu4o2Vs8LUV7jVeoTjdKuMAbfSX/K70kS4O2pgy242FY4I1+UuidwSZ/9uZPG3UKGB2YDpdsTTpJtmadTRnAk+0Kq8oG/Fjh7iN1/69JolRpJHurZyTvCx+avHmf7272b6EcWictnzopkNl3/ld6ap3aSd7nPjAPgFgD3WBttn26ca8M2nw0IGzDmlW+AxXQk8LAd3HQaVW+BxW+n8mw9W+4bgfg2+YqOMVVs9BtP6OMtJoWOrLnTjALWz5fW9pFxv71tSzZeSVsp6zfLc8s+kHKubAtdB3Yhhhqd+icKzpJ9p08LRWHzgxtmnp2XcPnmbr8g5KmwkNSetQic04xwIZaLPjmAEmWI6+qzuqSsmR5uadoGQPK/C/3kITJU8g9xe6VNPc9JIlSppY8T79tVOndBUpIkszZJU3Fh53PStV0+TwpqEC8u0BxyfhYI1OeKUv3VVABnTRHPlOP1GUrS7oHa0rmuq1M+ajbzHVaGrgnz11QivYcKwXfHezUqXINSVmCOpVVuE6VfC99rA+PlG6dqpo65e7ylvFTxwrobjx+RgZuOiy9V+0ICNlrWQh8VfkC3/lXKN/TCuODMkXhO3z9mwpeVb5r7gz4At0B69pKh9ll5bGP8prx94EAFZcsFLZFFLZPy7i/v5WlO08rbM9cCduF38u9etOEG7Z+BhyqjZwtp/8Nneh88Ld/qELz1O4NzYVrikIlFHKtjSL0X88DLa0CEyCXGbvM+MuTKfhyqPrM/1pvSZIpuxT5eKyUnbBc8zws6R54VEopuJPnLWpUKMsBYZKMWVXNTjF5gCoqtcCb/eWutBkkd+c3dLvHFNDVTAce7gLKBPZAtljvcVJq9CID3WQK5mL9JhnYUq8yY5eYOibLW1hytHle8r+qdcqc0yjeshO+0P1VM3UqM25pzIcunRPjN+yVgRsPBwRreMzCd8BfOwIqX/6fsmW5wvctx+2gFpfhO2h9Oxmxs6NUbJ/TTIidJldSM7b8WhNfx2ZzYJvDjCR7fekzMv7v71TZXgnbyet3ydO3AVt/Awajfw59Zfs/5y5IleGzTJMzUH7PXDMthdmqFstJ+mp1jEq164zPVM8rQM7aqIOJCuFBhnrN+FhDKfB6HwPg4v2mmu0yPFLfqFciSFC6uTq9GuKLTZYjjykzRaGSxvDVAvLU9z6goOwlKYqUUpA/awBKvhKqsM12OfNJ4e4jDIgNdHPlVwiPN35nXBShdaommWo2MQ+CZHm0TlqGU6d6pk7AOcZD9+8jp5zOs5tUuYHsCvgqyK3yXRSifA/J1M1fKnzfMS6HuArf0Xs7S7vBD4W84iVN7rgH3WZ+sH1j2fMyYfWPVyjb5QrbSWt3yVMLvnNg+5HClt5o90a/VSsxYJrcP2SGHD4TOjx4wq9rvUiGcBjQzda0syRKnVYV5hgDTfy4RDLgWwWOKNEyqlpLjVood+cvavKjKpPlVAj2+dQBXLW6odDNX9x0wrEcECbNnkfh/KlxFWR8tKGUnbRCSo9Zan4fOsNSlqwg6R9+woR2GfD2m+xslyWHFO05xihgq3SL951kXAfpHqzl1In9FSxufMEhYNZryqlTHVXFsQC6Fy5ellHr9siADQcDQvRWzcD39+3SX+E70Q++oW6HIzJ1ywqF77vSPy7Bd01b8+LOF2c+YWCbvlAy88qX1DmSxBno0jHWaGwO8/3Nz16Uiat/UtieuULZTly7U56a/52Utco2AmDrb9zAfVb+6l7FImf//U8eHT1XSgwO7VW/WTOdP6qW6Q0v3m+K4+8MkC9Wmx4TqjaVNvvxv2aoXl8BWFuSKPCyt+xqOsSSZMpmlqet9IgkVyVJpECeZz+QpNlyaxkKXQVf+qpPGBUMmJPnKSw5275glqNkKZcOsPwv95TEGbNKuiqPSaZaTeSeYmWNoiVP4gxZzX6BKZCncyxZrkIK6koK1KeMm4L9Fe01TgrgRqBONRoYN0PyPIW0ThO0Tu8r4LVOQNfU6XFTpxgP3Z8PHJch2/4JCM6IMKt8ge8E4LstrPIFvl/JiPXvm9FtsRq+CtwROzrJe181kqQp7pJsxdJKs09KSOJ7EkiqbLEfuqGwLSFvffaSTFzzswNbVbdW2U5Ys1OenP+tlOk/JcKUbSCj4+w+Bezuf065V7LInL83u03Wm4elDXMq+NZAKfTe0JBec8ojagI1Fnab2GqEa/FgydXxFYVrPVWjDUwkA3DlWFG1uB8yKigLd9Pmvi4r/MEI00llttdzT8RAvhc/MuXkefodKfTuELMc/2ruzm+qYtXzN3iWns8BCtymZj+oYeDKcuCLCs5Ys7HppGMfBd/sbzrdgD/RC3l0f0451KlXgDoND1gnVG+Mhe5ZVblD1+yW/uv2BwRmRBqhZga+q4Jkwvq9Mg/47gC+Rwx8ifedtuUbhe8H0n9NLISvAnfYto7S589WkiFPSrknfVL5+Jdm0n56WUmYJF6shq6FbctPS8o7n78mn679zahaf9iOX71DOs79WkornIBt4UiCrb+hdt9d9qN7NYv8e/GS1B+/UErqDRko/zVN6wwM6BVPkDS5JEyR0ig0/JEZFAx5VeUBZXr+jQIOVEZsMzrViKsdrk1+tRKD9Jyh7AGvqn3jClBDFbPMtALseeX/gdOckDHy67YmBle/m9jZkPOv+YihpSz2oftzWg/O9mbf7EPzmDLJO3yem+/K/d1MnXBhxFjofrP3mAzdfjwgJCPLLHwH/LVTle8+Vb4HXeULfE+58P1W4dvNVb5NFGoxH75DNnWQIZs7SMFKWcxbZN9YVE9G7e0sLcaWlIRJYyd0HdhmV9iWkneWvy6TDWyZF+G0fObCdtzqIOkwZ6WUArYfRg1sQ0xv9NKDpsmGg0fdK1rky807TUfMzbgGuNnpYffFixfigw9r+A6JNaVcQqsCleNZzLAYG6d74t+LMnD1Lum3dm9AOEa2hcJ3h4xfv0eVr8I3RPla+H4nIzd8qPBtEaPhS3jY8O2dpFKTguYG7fxJdRmzv4sM2thOWo4LhS6z2recEhhwMcmAbUNVtq0nl5Z3l78pk9f97sL2lIHt57uPydi/g6Td7K+klEIoymHrZ6jP5+Z+5V7VTmo1ZdlNgxH1RBgSsaPEgtKTniDZ3VfDN3cByfPMe47i0gdNoLI8i16LsdD9bOdhGbItalVuILPw7bdqh4yz8L1C+f4j07f8qPD9OMbCl5d2NnqvgrkpW/SsLBOOPiPDt3WSYUEdpfWnpQ10U2dPIm1m8nqR0NeyxDRjmC5uhNaTy8r7X7wtU9atEmfGL4Wtgvbz3f/IJ39tkzazVkgJYPvR2GiDbYjRxNQm5e+7D7pXtsj/du7XZdpkvUko0rSllx2fIGXix8zZ9kXTuRMvYcIQ8MZLkEAyP9HcNG29Icgxz2IkdA+f+1cGrNkjfVfvCQjC6DAD398d+I5fv0/mhoVvkIVvDz/4tr4KgFFu65xohbK185obskDFzJL33oySp0wGyVM2g6TPn1zi6U+Y8K74ki5fMvN+ft7l5P8eqeg2YGuU7RSF7ZfvytT1f4eB7TGF7XZpPVNhqxd1XgPbaJoYJYBxk7Wb9vkVc+52nbPCqOBA+QMZSpeOmTzPvGs6kujIQc0S1kRIFZ099xQvFwJejJCpEoOme+CNYRYjoTtv2wEnYkFBFwiA0Wk9Xfj2VfiOVeV7FXxRvlt/llEbeil8W0Y/fBW6w4M6SYN37lPYZpJshdNK1kJpHCucRhVuUgPdBIniS+qcSSV7+ZQOdCdHv+K1yrbNlHLywYoPFLarDWwZsmthO/LPrdJqxpcmAN3pIIs5sA0xVd105nyzdbd7hYus3X9ESqnaDU/HF8At8tFoSZwxi6tkE5ohpQxbJUa1aM9xUkYVML5iBg7ES3RXCHjTP1jL3OQ340O25u+eCPlOOcb0/xuUaaIQbtPFwfb0/Ee5q8QeZ6B1V1honvDWMcZBdy9TN67dJ33+3hUQejHFDHz/AL5BMnbd1fBdtP24zNjyi4HvgLWtFL6N9TOa4LumrQze1N5EL1jDxzt8R0dpMznUvcBbT3nLaSAARqWFwra8dFvRXaZtWKuwPR8K213HZNSqbdJSYUuvMLAtEhNh62f0WDeZtFguXQ691d5Y/J2UUrUaKL+/GZXbfaSCNk0ITP2NSIbsrZ81ypnA/dxPvi7xkyQNWZ+t6ZNGFQcq+3oGzEPgo+fZQohwNUKvmN7wKjC5+QEQypx8dtkVeQP9b79jRAQMmmHqQPiWnYwmYF7/sm5mXVizedXYH+a/7Ip87nfqZGCr9eU3MucJEPvnt9u4y2IcdGdsDjx1Y0w1f/iOQfluDQDfrb8qfPsoAB349o8O+KriHehnDAMetLGttPDrSOMV1NHZkcak4UQjtJ1yn3T/6iOZvmGdC9uTRtUC3OF/bJFm076Qonpx5wW25iL3u7hjqvUFvLNl0dqt7pUuEnTshNxrmv83ngyHPMSJ5lC4ZmnY3oyCuitN+ivgm65yDZMP8Obs8LK2YOKb5QmSJDPxqEAsUNmBDJ8xfmHiSgFnqpL3GdgSnpatyZNmjgIGF5jpDF3fsZlCEWWq6p3BAJl0+xxtnze+aGe5q1oH2Hxquh37Yp+s898/++Y4MzxS1wyEIM7VPjzMNgoxs0/KoxytC2Xa8jheW775bvY/Tbdjv25YF/vUcsjjlMMUjbNNXDAT5nB8Idv4KW7K47h5oDEvAyF9jEKzcbs2T2jZuq2W7ZQfg0LGtp88JwPWH7zu1I0x1ULgq9+B75wr4HtS4XtCZm79TUZv7GegG63KV42IhoEbFLpjSpobM3nau6ItZMyBbQ5pN7WifLiyp0zfuOFK2O46KsMsbFXR4rONNbD1M1wMtT6ZJ+f/C32Z5cdf/hLuyXDoQMOHi9Ghxg3OlIHE7VrwpipTydzkzNBFcH/I8tIVzM1u1daNDDWWVcvGXZFPYccoLqZOzFK/jeRs96LkfuotA/Kc7V82AwuyNu4k+V/rIxkfa2z2C6iZjSuXwp9wNwYZMGKr4NsDDawzPtrI5GXQQo42z5l5CYC5qZ8LtpSlKphRXSj4QloGZeZo+6KZ2yBznVYGYNmaPWWG1zKRTNbGHSWtrsPlQjlAn1FlDFrI6j6oKI/JbTgGzkf2Vs+aWcKYO8GBezWzL/IxFSP7NOVXqakPgQ9NBAn5KI9hyslzFzbDifM9382sQ+Vma9bFjDzL2qijATZ5zRBgLZtzxgMpRkCXCfcnmakbjwSEWmyxnmrAt48q30/WAd8DLnwxC9/fZfSG/iHwjQ7la2YZW99WWk0sJXkfSiXFameI8g403j2Gsm03tZJ8tLKXzNi40Q+2/xhlO/S3TdJ4ymdSRJVEbIWtvwGQyb+vd696kYOnzsj9w5j6UdVUgPzGDIimGKikKnO/gRyjoVBSAJhRasmy5wkBLPMO8KobpilMmtWZ0MinqjffCx+GBuvfwFCQ+V7uYWCRvUVXyfR4UwOzDDXqmxFXfDJnLUNbGUILqFKVvV+yNGpv5i0gP8DO1eEVA8TM9Vqb0VwAK/1DTxjDbVDgjf5m/gRGgzH3LC0CYAqMgZk9L2aUmMKShwpuDbYHnCjg3E+9qftSqJZ/0EzLSFgdZaUsdq+WM9gAMIvun5FpbEd+6sEQYYYAo6gZdgxkeYgBSTv3Lg8LjptRgJSV78WPDaCZcYztgHruTq/rORllZhvjYcTUkgz9pSOTFgET6eR7obtkqdvatB5Kj10WM6C74Z/TMnDz4QiZ1CYm2JXw3e2nfNW2K3wVwDO3/qnwHaAQbBPl8LXz6babUUZazygWpb5cB7Y5pP20++Wjr/vIzE2bFbAXFLYnDGyXqbId/OsmaTT5MxPyFRdgaw0VWm3kHDlx/oJ75YsM+/5P0wQPlB8DPNz0FqrW7s5XRPK99JGZ5pAJYRj/z/J48ROo8upulmdv+UxI/jQKKDtz1g1NgY0LB4ABDxRa6nJVDEBp4mdU1Qp0UasoVx4AZqKXVs+YycbJj9LN0fo5o1hperOc+gJUIEh5uAyYDJzyAHix3kB3ilGRzIWAX5i5b3lY4asGbOWmfmvARxmoZyYcB25ZVP2SL52Wk1dVKXMm0DpA8TIclxA7FDUTkvMAYIIaIMzDiDkWOF6gybSSTBdJnVG4AJyHW+EPR5nzgeuBaSGpNw8f52Ex2dQ/e8unzT7Kz/hOMtduadQuD0HOKfVnmHCMmE/34uVgGbN2921N3RhTLQS++jlm/V6Z7Q9fo3yB7yr5ZMMgA8Oogm8IdKPwzRHAtuE4YFtZenzTT2G7RZb5w3bnURn0v43S8NNlcQ62/ga0AK1Nx89dkIdG8DqXa0z96Da3AR4Tv8S/K3EISBMkSWp8j0Ah73PdJH7CRGY5kQ0makHPY+J0mcwyfMDMDYuSvGofAcwATMGFggUUlMlEM8Cc+RBQhkAX+HJMqDjWAysmhAFeAM66AHgAMO8BChWfM+ACykZVtuwqqbX5j8vEDLEdNFPLecooW9ajKBn0AQRRolbNAk0eSOzHxCYr/IEu+09XWR8QQ2YZ1Q3wgX36h+tIwbcHScrSFYyLglcB8a4zoAvoyZelflsDXeqGAndcBR30/+eNasWvznSO7AMXDL+LUb1aF9wnHBetEtwZ/I+aRp0zl0SmJ5rFDOj+cfhkhE3dGFPNwre3fo5et8eF76Er4Dtr618K38EycG07F76tAgIzIiwqoWuVbYfpVaTntwNl1uZtClvcCKHKdsAvG6SBwpZ5bOMqbK0x9SMvtjxw6qx7B4h8+ts6A65A+Y2p8jQdM70nmBsZeFjw8mqbQu8NkdKjl2gTu6pZhtpFRXKDp1Uo2LyAK9wuBoU96rDQ+0NNRxDN68LdRjrNfwUdkDK+Vv00nVRqKEpcCrggsCIffmKUep6u7xjQkh/oATPqh6oF2sb3252yQ0PoiuvxEn/MDGE8UOigQ9XiO8U1wfnAnUAnFiF1+I45T8C1iEKOGcl4YLGcetARWFDXUR/KpZ64LIiQYBs61ohY4JiLaF2oDy0T6pdT83KcgN64Ql7rbbbjIeEoeyYiGhZybqhjwXcGmX3xacr+0Kkjv3O0QvfCpcsyXFVu//UHAsIqrtmV8N2t8A3r8z2l8P1bxmwYGqnwjQroGtiqsgW2vb4dLLM3bw9RtssVtktV2Q74Zb3Un7REYTvewJYmnv+NH1et5LB50mPF/9y7QOT8xUtSawyTqVwjwkDPCwCgucxNi882S8N2ITBlIm461+gA8vmcORro9Coz9jMDAJsva4O2uv3NDMqYYkBie/oNFPnOMgWc+V+VKZPE2AeDiWYwEA6N0w1dTnlTzHeOx6zTT7POD7jW7Dqbl+1NXoWZ+d/Wg/2524fWzVH0LDf18FtmymUiHMrxz+uW49Tf1t2pgxPBwAsuqY+znVHlbt1D9zfVraP7v/10y472kLEf9zN1Y/QP941q84fvKH3ozPKH7/YTLnxXy5iNwxSS7SMcvpEJ3aYT8pkRZB1nPCS9vxumsA0KUbZMQrNk5xHp9/N6qTvRgW2+Owi21rgx7x00TXYcO+neCSIL125zXAIBpn406uzVXpKlXhsTogQIyJuicCkDUwZLFO2hyktVnw0lS31vZRPFQDMY5cuy9FVrGeCHLd+z65iB+tUPhHCZeVg5IW3mwaTLohW6Z/67JIPX7JZ+6/YFBNOdYFfBd8vV8J29dZ3Cd4Qq344RBt/IgG6T8fmMsu0042GF7XCZs3lHqLJV2C7ecUT6/rRe6kxYbF5hnvfjOw+2/sbAiDeXfO/eDfRtXJZGE533cvnnA9A0TS1MefMB563UyIWSrXEnswzjLbV0lN2dt7D5n9fXoIpxRyRImswswyd5M6FjBjhAw6g1Zxuj2IxCRD06itBCyQGMo+yc/4nLdf+3ZYUBGNujHB0whS531qmCNPty961lm/9Z78LQKdNR27Zuzv/kD7O9ratR56H7D8kXcoyqqKmTrnPcF7hJdN9uuc6xa15j7r7Yrz1297ygeOmow2/s1Cuale7K3UdlSBRP3RhTzcKX76PW7pKZgeC7bZ2M3ThS4dtB+t4mfCMSuha2T858RPp+P1LmbNnpwvZ4CGz7/LhOnhi/WAr0UGV7h8PWmrkB9UZedyB06seVW3a5TVnn5jf5NA+vCrcdaIlSpzMdM8y5gA81BLrPfiClRy+We4rf60K3gLnBi340JiSWN/V9Dyl0wzksWPOwH3yvDMywYKIzDvVsRmwBJHy77w426/C1AnneB0e9iWIAOHZ/+FLxeYbsX+GED5WOKHzAIYBWM8fdfaTZhn3hosBPi+I3gNZrCF8u9cO/isuA+lI3fM/kJ/qB7S3Q8es6Mb+jQuqAX5Y6UXcDYI6x+yhTJ0Ln8CcTNWG203MJmAGxqafWoSidk1pX6oVv2NQDfy8tD60PkRJ0zPEAND7d6ILu8Qv/yaA1e1S5xZxJbWKChSjfVY7ynbn5gOvvxRz4ztm6XuH7iYKzkwvflgHBej2LCOg2GZ9XYZtTOs+sIX1/GC1zt+4OA9vD0uuHNfL4uEUebK9hKFMmv/FP7ad/bm5M/3x0vuXq+KoZGECnFDe2UV168ztvV2hkAABoUFb0oOfp8rbJh2KjJ55tC7zez0DFv+xrWfH+DkQJuWJb+8YEvqerWktytHnBuDuIp3ViW7uad4CZcCoFFR1OdPg5ryxnQERDE2FAjz/1NmqQ4yKEq2ZjJ4SM8DOOTesMxOgEZHtia/O98JEJxyJMjNC0vM+8b6a5JDogfbXaBtrUy4SquZ1t1IXoAvzbdHQxIxsRGXSOmXOj58u8MLLSIyZSgsgKE4dcra6Jeshcr5Upi1fzMIgjk9aTcqkv/9OJRgchERaAmf3xPjX+T1Wqgon7BbqEtDH4I3uLLiY+OFqgu1RvyDvRlxteC3U77JCRa8Iq3+MOfLdtlHEbx6jyfdJ1O4QfvrcO3aKhsJ31qPT/cazCds8VsKWOPb9fI7XGLlTYjlPY6hPfg21AKw549Ob/Zed+984QMw0kMAppyrqGAgbGgCJkuao1lhlIo9z0PAMsk0/L5X//bY2SDOdvQVMZBUusaVoFmwnXatzBQLP06EXmDRjpHqwZMroL+KLsgBIgJMwqdfkqBv7AmgEImR5vpgBWpeoeG/tAoQPtFIVLSrbmXdy6zzDgJlaXEC3KTVvxYROWlbluKxPiRQgaYETxE9ZFfkLBqGNhRpLxCh6tG52PDJwwDy2FIhENVvlyLtNUqmZG06GQASQhY7yandA36gwweWCUGbvU1C9z7Rbm+HgLMcdDuYS7lRw8wxwrYXM8jBilRyhf1obtzCTz5KWVQUdmlEP3wJkL0nf1bmOBgONZqIVVvjO27PdTvgrfoNMK300ybtM4BemTqnwbhQu+Nw9dC9tc8tSsxxS242Te1r0hsOVljwu1Tj2+Wy2PjV0QClu/m9izwMaN2GbqZ1dM/fjcvK8UPuGPMogMY/8oTaCRq9PrBniMzgJ0wIqZ3ViWp+u7BuooRZrXxO8y5BVQ5n3mPTMyDOWHgmSILK8ZMs1/mvHaXKczkJc7pld1mVXVoH2AOK6CHgaeZjhv1ceNUsZdQagYyjqLqlrqyVuCcWsQ0gXw+N8oYt0vgEVFo6ipb3EFunUt8GBCnbNdCHT1oWKXAeO8z3czA0Q4RkLDkmbLY9QtapfXxeMCSV32fuO6QN1bcAN8YpqJzWXaTR5auFJ4CEQ5dJmRa/DWyHvZZFw0C1/meBiuyneGv9sB5Wvgu1nhO0EGrXtKle/14Rt+6Dqwbayw7TL7cRn40ySZt22fwpZoBAe2C7Yflo9DYDte8htlG/hG9iyAKQC4ob/ctMO9Q8S84qc0k+HQ6RNomygwwJqj7QtGRdJ0Bh60WIAHRrMbNYc7A38lUGMIrGliK0SBDgBC+aFCcVOg9gAn8cbGf6qGawQYoipzPfmGORdmGPKLH0uGh+sY6DKwgKgNYMgoMPaNqsTlQf7MT7Rw8uu+zNDdZgzdHWbqzQOAfPiD7ZwNIdBV8KNciR0G5gwnxkcN4BklR37gj4uC0WS0EtLc/4h5uBi3iNal1Mj5xtXAseOmYC4H9sdQbeZZYHAI/mFcJJwPlPkLC76JOujuPnXevIKnz18xe+rGmGohHW4K3xFrVPle4fN14Dt32xYZv2miwrfLNd0ON4YusM1jlG2X2U/IoJ8/lfnbDriw/ceF7SHp/s1fUv2T+QrasQ5sw9y4noXPAEfDCYvl4qXQW/Htpd+blyMGyh9VhpuDAQl0DBlI0pmmn6hW46Zw4YWhGumAAlrGtaHLUHZ0VOFCoWOJji3TtHd7/NmeBwvLTVl+5fHdDCjQMo27RQ1Ym7zu+pD85vtks2/bIQe48R2T39THP7+/hVkGlM0x6nZ0mJkHX189Fq2HXc829nywjPLZrzlP1NOU5Vc3k2eaORe4YqJU6U7dtE8GbzmqAHF66j27NfNXvsNU+U7f7Od2cJXv3G1bFb6TXPiifFuEA7oObBuPyy1Pz6kjg3+ZehVseU1992//lhpjFLZ6I2EebG/faCbPW73FvVNEdh0/JeWHMD1haI9+dBhwMZC0cHKBY/63y/zymnVh8wX639q1lqtdUR4WNu9Vn2HzX719yPdAy/zKC7ufkHIC5Vdz8vvnCd3W/zvukyiD7rYTZ2XAhkPSe1Xsm7oxploIfPUhxsi+af7wDaJTC/huV/hOVvg+7UY7tAgA3aLS2IVt17n1Zcgv02W+KtkrYXtQ3v96lVQbNddEIqBs7QXn2e0bzflHR8+Vs//+594xIn1X/mqaoyYPN69nsd7oSHt+3srIhy7vPZu4ca+q3GPaNPZUbmSYcTvo5/A1YeC7/R9ZHHRG4RskEzZNVfh2lX5rG6v6baHQLS0Nx+ZU4OaWZ+Y2kKH/m2ncBv6wnbfVge3Do+aZ0WOeso08wwc4xG8ynMOnz0qloTMNeHFBeBb7jUnmu8xZEfnQ3XP6vBnqyhwLg7YcjZUTlccWc9wO22XY6l0OfBWiVvk68N0hEzdPl4FrukirqQVV2TaUYf+bbTrEmM92qQvbufp7vb3id3lopCpbF7aBQOHZ7RsuBDqjyg+bLYO+C4UuiU61b7bvlW+37fEsLljQPll34Ij7695cuiWf7vZT52V20BEz9NeDb+Qa8O2hNnT1Tlf5HnJifV3lO2vLRhn553xH2V4F2z+k6sg5ZhIaIhICgcKz2zcL2/uGzJQPv/hFth057t4pXvLS1emWoGtT0KlzMnPbQfMSSlwOvb1ohkizUPjukqlhfL5Ld55xYLv3H5mz5YC8+cVv8uAIC1tP2UaW0btuYDt4hvRe+bvs/OeUe2d4yUvXTrcFXZt2qPKdy0Qoa/D3HvVCySLRLHyHqPKdusmBL8p2toL4jS9+lSrDZytsx3jKNhKNcCJgW2noLOm54lfxn2XMS166UYoQ6Nq0U+E7a9shE8PLhOYx/RXssdmsz5cON5Rt5WEzJc+HnhshMs3CtvKwWdL/2z9l74nT7pXvJS+FP0UodG3adfqCLNhx1AwR9uAbedZn1Q756LdtUrL/VBP+FQgUnt2+hcBWWxH9vvlD9h733AheuvUUKdC1aZcq3/k7DhvoMmTYg2/EGtDt8ft204HD+8gCAcOzWzcHtnOkyojZMvj7VVe8msdLXrrVFKnQtYlQs8W7jnnKN4LNg27kmFW2VYbPMrDdf9JzI3gp4lKUQNemvWcuyIIgVb5/7ZQh21T5ejOU3ZZ50I1YY+w9sCWmecRPq+XQaU/ZeiniU5RC16Z9Ct+lu49K/zV7PPjehnnQjRgLhe0cGfHj33LQg62XIjFFC3Rt2n/2gizedVT6/rXLwNebm/fmzIPu7ZmF7SOj58mY/62Vf86dd69ML3kp8lK0QtemAwrfz/YckwGqfAcb+Hqv/wmPedC9NTNv4VXYVlfYjv55tRw5fc69Er3kpchPMQK6Nh06+68s231U+q22yteD7/XMg+7NmVG2Q+fIY2MWyITf1suJ8xfcK89LXoq6FKOgaxOzmS1X5TtwrePz7eu9+DKgedANnzHdIrCtocp23P/WyvFzHmy9FH0pRkLXJpTv53S4GeV73INvGPOge31zYDtbao1bKJN/3yCnLvzrXlle8lL0pRgNXZuOnP9XVuz7Rwav2+cpXz/zoBvYrLKtNWaBwna9nPTcCF6KQSlWQNemowrfL3E7rN5tlG+/NXsDwiiuG1NpMsCk399Ee+yUCsNmS2GFDa8aueL1JHeUfRqibOtMWCwzVm2SM35vb/CSl2JKilXQtenY+f9k5b4TMnTdXqN8mWAnEJziqvVWhdtLjVC7nn/skPuGzpLCYV4weCeZmc1fYVt73EKZrrA97bkRvBSDU6yErk3H/70oX+8/LoPdQRZxHb5MmcnMYsUeflQy5SsoabPnlDTZckjidBnlrrQZjCVKlca8uprmdSBAxRnTB4yB7ZDZ0vDTpTJ39RY5/99F98rwkpdiborV0LXp+IWL8u2B4zJsPT7f42ZS9UDQiu2GSwHo3pM+o/h8PslcoLBkKVRMkmfLJUmy5JAkWXPqZ07zvn6a2QFhFdvND7b1JyySOX9v9mDrpViV4gR0bTqhyvdbVb5DTKiZwndd3IKvhW7KjJklVaYs0vO3rdJ33X6pMHyOFFEY8f5+5/3+cdDNEALbWdJ0ymeycO02+ffSJfeX95KXYk+KU9C16aTC9wdVviM2ONEO/RRMgSAW2ywsdHv8b4v0XbvX6UjrDZjcd/bHJega2M6SkgrbRhOXGNj+d+lW3sHqJS/FjBQnoWvTKeB78IQMMx1ux6V/LIdvCHQzZJLUmbOZ6I3B249LpTGLpZiCqfjAaYHBFRvNhS3qtvnUz+WzjTvk4mUPtl6K/SlOQ9cm4PvTwZMyylW+sRW+FroAN37ChFKqZl0p+WhtyVDpEclcr40UemewaX4HhFhsMWCrxwBsm01eJp9t2CGXPNh6KQ6lOwK6Np29eMnAd7gqXybW6b8+dsEX6Pb4fZukz5lHktydQhInv1sS33236VTDEt59j+Rs/1LsBK+F7aAZ0mbGF7Jiy24Ptl6Kk+mOgq5NZ/67JL8ofEdv3O8o3/UHAkIuphnxuT3/2CYvzPxM3lj6g3z44zr54Ie1UrrbCEn3SD0D3viJk0jBtwbEHleDwrbkkNkK25nSatrn8sWmHRIcHOz+Ul7yUtxLdyR0bTp36bL8eviUjFrvvL04tsB3wIaDxkXSf+1e6f3Xbqk4eqEUH7FA0lR4yIA3S/02UnL43MCQiykWAtsZ0mHWCvlm2x4Ptl66I9IdDV2bzl28pPA9KWM2HYhVytd/7oViQ+ZI1sadDHQzVK+n0J0XGHbRbX0nO7AdOF3azVguK7fscn8FL3npzkgedP3SeVW+v6ny/WSDo3xRlIFgF11GJxoKl3rhavCHbvER8yVDtbqhSndYzFK6xV3YFlfYPjnnK/l++173rHvJS3dW8qAbIF1Q+P6hynfspv2h8FXABQJhVBqzqz01frY8M2WhDNx4SIbvOCEDNx+TyhOXS95Xe0uie1JJvPgJpMDrfY2SDAS/KLd+CtuhCtsB0+TJ2SsUtnvcs+wlL92ZyYPuddK/Ct8/j5ySsRv3yeAtR2XAxuiFL7HGD7TsaNRsgYpVpMbTL0ntN7pLlmq1Jd5dSczyjDUbm4EEAQEYhcZsZxa2XeZ+LT/v2OeeVS956c5OHnTDkS5cvCR/Hj4l4zcfkEEGvoeiBb74mlG6ectVVEUb30DWWuL0mSRr446OwmVUWgAQRoWFwLb/VHl67kr5yYOtl7x0RfKgexPp4uVg+fvYGRm/ab8M2nzUNPHNNIsBABkZZny6Cl5mU3v3q9/l+elLpfPYWVLirf5SuMdYZ5KbvtEzBDgUtlPkhYXfym+7DrhnzUte8pJ/8qB7C4mx/38fOSUTtxxU+B6JcvgyiTngHaT77b/hkFQctUCK9IlO2M4xE+08v+Ab+W33QfcseclLXgqUPOjeRrqkyneNKt9JwHfTYRmoFpXwjc7X9QBZYFui/1R5ZfH38ocHWy95KVzJg24EJNwOa4+dlslG+UYdfKMDuha2KNyXF30nf+097J4FL3nJS+FJHnQjMF1W+K4/flambD1owIv6jUz4RiV0LWxLD5wmry/9QVbv82DrJS/dSvKgGwnpUrDCV5Wvge/GQ8bv23vVzoDgvB2LCujSMcZAi5KqbF9f8r2s2X/EPUoveclLt5I86EZy2qjKd6rClwEWEQ3fyISuA9s5UmbQNHnns59k/YGj7hF5yUteup3kQTcKEhO5bPznjEzfdigUvn/dPnwjA7pW2ZYeMFVh+6NsOHjMPQoveclLEZE86EZx2nLinIEv8bYMtLgd+EYkdC1syw2eId2++EU2HfJg6yUvRUbyoBtNacuJszLjNuEbEdBl5Fgphe29g6YZ2G4+/I9bQy95yUuRkTzoRnPafvK8zNx+2MwedrPwvR3oAluUbYWhM6XHV7/K1iPH3Rp5yUteiszkQTeGpG2qfGdvP2ReGx9e+N4KdIsPcGBbftB0+XjFrxJ07IRbAy95yUtRkTzoxrC04/R5mbPjiBnmy8xm14PvzUDXwrbSsFnS5+s/JOioB1sveSk6kgfdGJqCTp6TOShf4Lv1mHkp5a1A18K24tAZ0vvr32X38VPuHrzkJS9FR/KgG8PTrtMXZJ4qX6AbFr7Xgy7z2ALbysNny4Dv/vRg6yUvxZDkQTeWpF2nzsu8oENXwDcQdC1s7x86UwZ9t0r2nTzjluAlL3kpJiQPurEs7TlzXha6ynfotuPSa9VOuW/wDCnixtk+OGKODPn+L9l74rS7hZe85KWYlDzoxtK058wFhe9h6fv3bqk0eqE8MGyWDPvhLzl46qybw0te8lJMTB50veQlL3kpCpMHXS95yUteisLkQddLXvKSl6IwedD1kpe85KUoTB50veQlL3kpCpMHXS95yUteisLkQddLXvKSl6IwOdCV+P8HbkKJFI7QMXAAAAAASUVORK5CYII=;" vertex="1" parent="1">
          <mxGeometry x="420" y="40" width="250.28" height="180" as="geometry" />
        </mxCell>
      </root>
    </mxGraphModel>
  </diagram>
</mxfile>
